<?xml version="1.0" standalone="no"?>
<!DOCTYPE svg PUBLIC "-//W3C//DTD SVG 1.1//EN" "http://www.w3.org/Graphics/SVG/1.1/DTD/svg11.dtd" >
<svg xmlns="http://www.w3.org/2000/svg">
<metadata></metadata>
<defs>
<font id="blanch_caps_lightregular" horiz-adv-x="643" >
<font-face units-per-em="2048" ascent="1434" descent="-614" />
<missing-glyph horiz-adv-x="294" />
<glyph horiz-adv-x="2048" />
<glyph horiz-adv-x="2048" />
<glyph unicode="&#xd;" horiz-adv-x="2048" />
<glyph unicode=" "  horiz-adv-x="294" />
<glyph unicode="&#x09;" horiz-adv-x="294" />
<glyph unicode="&#xa0;" horiz-adv-x="294" />
<glyph unicode="!" horiz-adv-x="301" d="M59 61q0 9 11 9h4q8 0 8 -9v-184q0 -8 -8 -8h-4q-11 0 -11 8v184zM59 207v790q0 9 11 9h4q8 0 8 -9v-790q0 -10 -8 -10h-4q-11 0 -11 10z" />
<glyph unicode="#" horiz-adv-x="1085" d="M39 305v4q0 8 10 8h238v373h-238q-10 0 -10 8v4q0 11 10 11h238v288q0 9 8 9h6q8 0 8 -9v-288h240v288q0 9 10 9h4q8 0 8 -9v-288h240q8 0 8 -11v-4q0 -8 -8 -8h-240v-373h240q8 0 8 -8v-4q0 -10 -8 -10h-240v-287q0 -8 -8 -8h-4q-10 0 -10 8v287h-240v-287q0 -8 -8 -8 h-6q-8 0 -8 8v287h-238q-10 0 -10 10zM309 317h240v373h-240v-373z" />
<glyph unicode="$" horiz-adv-x="641" d="M59 186v39q0 11 9 11h4q8 0 8 -11v-39q0 -66 47 -112.5t113 -46.5t112.5 46.5t46.5 112.5v78q0 17 -8 25l-319 430q-13 13 -13 37v78q0 75 54 129q44 47 116 53v121q0 8 9 8h4q10 0 10 -8v-121q71 -5 120.5 -57.5t49.5 -124.5v-39q0 -9 -8 -9h-6q-3 0 -6 3t-3 6v39 q0 66 -46.5 112.5t-112.5 46.5t-113 -46t-47 -111v-80q0 -13 8 -25l322 -428q12 -20 12 -39v-78q0 -76 -53 -129q-51 -48 -117 -51v-123q0 -8 -10 -8h-4q-9 0 -9 8v123q-71 5 -120.5 56.5t-49.5 123.5zM59 780v2v-2zM59 780v2v-2z" />
<glyph unicode="%" horiz-adv-x="1159" d="M59 778v51q0 75 54 129t129 54q74 0 127 -54t53 -129v-51q0 -75 -53 -128.5t-127 -53.5q-75 0 -129 53.5t-54 128.5zM82 778q0 -66 47 -113t113 -47t111.5 47t45.5 113v51q0 66 -45.5 113t-111.5 47t-113 -47t-47 -113v-51zM317 10v250q0 17 13 39l321 428q8 12 8 25v252 q0 8 9 8h4q8 0 8 -8v-252q0 -25 -12 -37l-320 -430q-8 -12 -8 -25v-250q0 -10 -8 -10h-4q-11 0 -11 10zM575 182v54q0 74 54 127t129 53t127.5 -53t52.5 -127v-54q0 -75 -52.5 -128.5t-127.5 -53.5t-129 53.5t-54 128.5zM598 182q0 -66 47 -112.5t113 -46.5t113 46.5 t47 112.5v54q0 65 -47 111t-113 46t-113 -46t-47 -111v-54z" />
<glyph unicode="&#x26;" horiz-adv-x="759" d="M59 182v254q0 58 33 104.5t86 65.5q-53 21 -86 66.5t-33 103.5v53q0 75 53 128t128 53h39q8 0 8 -9v-4q0 -8 -8 -8h-39q-66 0 -113 -47t-47 -113v-53q2 -65 48 -111.5t112 -46.5h159v130q0 8 9 8h6q8 0 8 -8v-130h129q8 0 8 -10v-4q0 -8 -8 -8h-25h-104v-588q0 -8 -8 -8 h-174q-75 0 -128 53.5t-53 128.5zM80 182q0 -66 47 -112.5t113 -46.5h159v573h-159q-66 0 -113 -47q-47 -50 -47 -113v-254z" />
<glyph unicode="'" horiz-adv-x="301" d="M59 680v455q0 10 9 10h6q8 0 8 -10v-455q0 -10 -8 -10h-6q-9 0 -9 10z" />
<glyph unicode="(" horiz-adv-x="438" d="M59 180v651q0 67 43.5 118.5t108.5 62.5q8 0 8 -8v-5q0 -10 -8 -10q-56 -11 -92.5 -55.5t-36.5 -102.5v-651q0 -58 36.5 -102t92.5 -55q8 0 8 -11v-4q0 -8 -8 -8q-65 11 -108.5 62t-43.5 118z" />
<glyph unicode=")" horiz-adv-x="436" d="M59 8v4q0 11 9 11q56 11 92.5 55t36.5 102v651q0 58 -36.5 102.5t-92.5 55.5q-9 0 -9 10v5q0 8 9 8q65 -11 108 -62.5t43 -118.5v-651q0 -67 -43 -118t-108 -62q-9 0 -9 8z" />
<glyph unicode="+" horiz-adv-x="569" d="M59 504v4q0 8 9 8h127v127q0 8 8 8h4q10 0 10 -8v-127h127q8 0 8 -8v-4q0 -10 -8 -10h-127v-125q0 -11 -10 -11h-4q-8 0 -8 11v125h-127q-9 0 -9 10z" />
<glyph unicode="," horiz-adv-x="301" d="M59 190q0 11 9 11h6q8 0 8 -11v-454q0 -10 -8 -10h-6q-9 0 -9 10v454z" />
<glyph unicode="-" horiz-adv-x="571" d="M59 504v4q0 8 9 8h274q8 0 8 -8v-4q0 -10 -8 -10h-274q-9 0 -9 10z" />
<glyph unicode="." horiz-adv-x="301" d="M59 8v185q0 8 9 8h4q10 0 10 -8v-185q0 -8 -10 -8h-4q-9 0 -9 8z" />
<glyph unicode="/" d="M59 8v252q0 24 13 37l319 430q8 12 8 25v249q0 11 9 11h4q10 0 10 -11v-249q0 -21 -12 -37l-322 -430q-8 -12 -8 -25v-252q0 -8 -8 -8h-4q-9 0 -9 8z" />
<glyph unicode="0" horiz-adv-x="641" d="M59 182v647q0 75 54 129t129 54t128.5 -54t53.5 -129v-647q0 -75 -53.5 -128.5t-128.5 -53.5t-129 53.5t-54 128.5zM82 182q0 -66 47 -112.5t113 -46.5t112.5 46.5t46.5 112.5v518q-2 -3 -7.5 -9.5t-8.5 -10.5l-6 -8l-281 -371q-16 -23 -16 -59v-60zM82 311q2 3 8 11 t8 10l6 8l281 371q16 24 16 51v67q0 66 -46.5 113t-112.5 47t-113 -47t-47 -113v-518z" />
<glyph unicode="1" horiz-adv-x="440" d="M59 997v7q0 8 9 8h141q3 0 6.5 -4.5t3.5 -8.5v-989q0 -10 -8 -10h-6q-8 0 -8 10v979h-129q-9 0 -9 8z" />
<glyph unicode="2" d="M59 10v56v176v18q0 24 13 37l319 430q8 12 8 25v24v2v51q0 66 -46.5 113t-112.5 47t-112 -47t-46 -113v-38q0 -9 -10 -9h-4q-3 0 -6 3t-3 6v38q0 75 53.5 129t127.5 54q75 0 129 -54q53 -53 53 -129v-53v-24q0 -19 -12 -39l-320 -428q-8 -8 -8 -25v-18v-219h332q8 0 8 -9 v-4q0 -10 -8 -10h-346q-9 0 -9 10zM422 776z" />
<glyph unicode="3" d="M59 182v37q0 10 9 10h4q8 0 8 -10v-37q0 -66 47 -112.5t113 -46.5t112.5 46.5t46.5 112.5v154q0 58 -36.5 102.5t-92.5 55.5q-8 0 -8 10v6q0 10 8 10q56 11 92.5 55.5t36.5 102.5v151q0 66 -46.5 113t-112.5 47t-113 -47t-47 -113v-38q0 -9 -8 -9h-4q-9 0 -9 9v38 q0 75 53 129t128 54t128.5 -54t53.5 -129v-151q0 -59 -33.5 -105t-87.5 -65q54 -21 87.5 -67t33.5 -105v-154q0 -75 -53.5 -128.5t-128.5 -53.5t-128 53.5t-53 128.5z" />
<glyph unicode="4" horiz-adv-x="780" d="M59 371v139q0 21 13 37l317 426q8 8 8 24v7q0 8 9 8h4q8 0 8 -8v-7q0 -24 -12 -39l-318 -423q-8 -12 -8 -25v-127h317v180q0 10 9 10h4q10 0 10 -10v-180h127q8 0 8 -8v-4q0 -9 -8 -9h-127v-352q0 -10 -10 -10h-4q-9 0 -9 10v352h-329q-3 0 -6 3t-3 6z" />
<glyph unicode="5" d="M59 182v39q0 8 9 8h6q8 0 8 -8v-39q0 -66 47 -112.5t113 -46.5t111.5 46.5t45.5 112.5v254q0 66 -45.5 113t-111.5 47h-174q-9 0 -9 8v400q0 8 9 8h346q8 0 8 -8v-7q0 -8 -8 -8h-332v-371h160q75 0 127.5 -53.5t52.5 -128.5v-254q0 -75 -52.5 -128.5t-127.5 -53.5 t-129 53.5t-54 128.5z" />
<glyph unicode="6" d="M59 180v649q0 74 54 127.5t129 53.5q67 0 117 -43.5t61 -108.5q1 -3 -1 -5.5t-5 -2.5h-6q-7 0 -11 8q-11 56 -54 92.5t-101 36.5q-66 0 -113 -46.5t-47 -111.5v-307q24 43 66 68.5t94 25.5q75 0 128.5 -52.5t53.5 -127.5v-256q0 -75 -53.5 -127.5t-128.5 -52.5t-129 52.5 t-54 127.5zM82 180q0 -66 47 -113t113 -47t112.5 47t46.5 113v256q0 66 -46.5 113t-112.5 47t-113 -47t-47 -113v-256z" />
<glyph unicode="7" horiz-adv-x="641" d="M59 10v250q0 20 13 37l321 430q8 12 8 25v237h-333q-9 0 -9 8v7q0 8 9 8h346q8 0 8 -8v-252q0 -24 -12 -39l-320 -428q-8 -12 -8 -25v-250q0 -10 -8 -10h-6q-9 0 -9 10z" />
<glyph unicode="8" horiz-adv-x="641" d="M59 182v256q0 57 33.5 103t87.5 67q-53 19 -86.5 64.5t-34.5 103.5v55h23v-55q2 -65 48 -111.5t112 -46.5q64 0 110.5 46.5t48.5 111.5v2v53h23v-53v-2q-1 -58 -34.5 -103.5t-86.5 -64.5q54 -21 87.5 -67t33.5 -103v-256q0 -75 -53.5 -128.5t-128.5 -53.5t-129 53.5 t-54 128.5zM59 831q2 75 55 128t128 53q74 0 127.5 -53t54.5 -128h-23q-1 66 -47.5 112t-111.5 46q-66 0 -112 -46t-48 -112h-23zM82 182q0 -66 47 -112.5t113 -46.5t112.5 46.5t46.5 112.5v256q0 65 -46.5 111.5t-112.5 46.5t-113 -46.5t-47 -111.5v-256z" />
<glyph unicode="9" horiz-adv-x="641" d="M59 678v151q0 75 53 129t128 54t128.5 -54t53.5 -129v-647q0 -75 -53.5 -128.5t-128.5 -53.5q-67 0 -117.5 43.5t-61.5 108.5q-1 3 1.5 5.5t5.5 2.5h6q6 0 10 -8q11 -56 54.5 -92.5t101.5 -36.5q66 0 112.5 46.5t46.5 112.5v408q-24 -43 -66 -68.5t-93 -25.5 q-75 0 -128 53.5t-53 128.5zM80 678q0 -66 47 -113t113 -47t112.5 47t46.5 113v151q0 66 -46.5 113t-112.5 47t-113 -47t-47 -113v-151z" />
<glyph unicode=":" horiz-adv-x="301" d="M59 8v185q0 8 9 8h4q10 0 10 -8v-185q0 -8 -10 -8h-4q-9 0 -9 8zM59 586v184q0 8 9 8h4q10 0 10 -8v-184q0 -8 -10 -8h-4q-9 0 -9 8z" />
<glyph unicode=";" horiz-adv-x="301" d="M59 190v-454q0 -10 9 -10h6q8 0 8 10v454q0 11 -8 11h-6q-9 0 -9 -11zM59 586v184q0 8 9 8h4q10 0 10 -8v-184q0 -8 -10 -8h-4q-9 0 -9 8z" />
<glyph unicode="=" horiz-adv-x="571" d="M59 371v4q0 10 9 10h276q8 0 8 -10v-4q0 -9 -8 -9h-276q-3 0 -6 3t-3 6zM59 633v4q0 10 9 10h276q8 0 8 -10v-4q0 -8 -8 -8h-276q-9 0 -9 8z" />
<glyph unicode="?" horiz-adv-x="641" d="M59 68v-185q0 -8 9 -8h6q8 0 8 8v185q0 8 -8 8h-6q-9 0 -9 -8zM59 213v76v16v10q0 17 13 39l319 426q8 12 8 25v24v2q0 66 -46.5 113t-112.5 47q-65 0 -111.5 -47t-46.5 -113v-38q0 -9 -8 -9h-6q-3 0 -6 3t-3 6v38q0 75 53.5 128t127.5 53q75 0 129 -51q53 -56 53 -130 v-2v-24q0 -19 -14 -37l-318 -428q-8 -12 -8 -25v-10v-16v-76q0 -10 -8 -10h-6q-9 0 -9 10zM422 829v2v-2zM477 774v2v-2z" />
<glyph unicode="@" horiz-adv-x="1236" d="M59 182v645q0 77 53.5 131t129.5 54h430q75 0 128.5 -54.5t53.5 -130.5v-376q0 -76 -53.5 -129.5t-128.5 -53.5h-47q-9 0 -9 8v207h-321v-207q0 -8 -8 -8h-4q-9 0 -9 8v287q0 75 54 128.5t129 53.5t128.5 -53.5t53.5 -128.5v-274h33q66 0 112.5 47.5t46.5 114.5v376 q0 67 -46.5 114.5t-112.5 47.5h-430q-68 0 -115 -47.5t-47 -114.5v-645q0 -66 47.5 -112.5t114.5 -46.5h297q8 0 8 -9v-6q0 -8 -8 -8h-297q-76 0 -129.5 53.5t-53.5 128.5zM295 506h321v57q0 66 -46.5 113t-112.5 47q-67 0 -114.5 -47t-47.5 -113v-57z" />
<glyph unicode="A" d="M59 8v821q0 75 53.5 129t127.5 54q75 0 128.5 -54t53.5 -129v-821q0 -8 -8 -8h-6q-9 0 -9 8v488h-317v-488q0 -8 -10 -8h-4q-9 0 -9 8zM82 518h317v311q0 66 -46.5 113t-112.5 47q-65 0 -111.5 -47t-46.5 -113v-311z" />
<glyph unicode="B" d="M59 12v987q0 5 4.5 9t8.5 4h170q75 0 127.5 -54t52.5 -129v-153q0 -58 -33 -104.5t-86 -65.5q53 -19 86 -65.5t33 -104.5v-154q0 -75 -52.5 -128.5t-127.5 -53.5h-170q-5 0 -9 4t-4 8zM82 23h160q66 0 112.5 46.5t46.5 112.5v154q0 66 -46.5 113t-112.5 47h-160v-473z M82 516h160q66 0 112.5 47t46.5 113v153q0 66 -46.5 113t-112.5 47h-160v-473z" />
<glyph unicode="C" horiz-adv-x="620" d="M59 182v647q0 75 54 129t129 54t127.5 -54t52.5 -129v-14v-24q0 -9 -8 -9h-4q-3 0 -6 3t-3 6v24v14q0 66 -46.5 113t-112.5 47t-113 -47t-47 -113v-647q0 -66 47 -112.5t113 -46.5t112.5 46.5t46.5 112.5v45q0 11 9 11h4q8 0 8 -11v-45q0 -75 -52.5 -128.5t-127.5 -53.5 t-129 53.5t-54 128.5z" />
<glyph unicode="D" d="M59 12v987q0 5 4.5 9t8.5 4h170q75 0 128.5 -54t53.5 -129v-647q0 -75 -53.5 -128.5t-128.5 -53.5h-170q-5 0 -9 4t-4 8zM82 23h160q66 0 112.5 46.5t46.5 112.5v647q0 66 -46.5 113t-112.5 47h-160v-966z" />
<glyph unicode="E" horiz-adv-x="512" d="M59 12v987q0 13 11 13h213q8 0 8 -11v-4q0 -8 -8 -8h-201v-471h201q8 0 8 -10v-4q0 -8 -8 -8h-201v-473h201q8 0 8 -9v-6q0 -8 -8 -8h-213q-11 0 -11 12z" />
<glyph unicode="F" horiz-adv-x="512" d="M59 8v991q0 13 11 13h213q8 0 8 -11v-4q0 -8 -8 -8h-201v-471h201q8 0 8 -10v-4q0 -8 -8 -8h-201v-488q0 -8 -10 -8h-4q-9 0 -9 8z" />
<glyph unicode="G" horiz-adv-x="641" d="M59 182v647q0 75 53 129t128 54t128.5 -54t53.5 -129v-38q0 -9 -10 -9h-4q-3 0 -6 3t-3 6v38q0 66 -46.5 113t-112.5 47t-113 -47t-47 -113v-647q0 -66 47 -112.5t113 -46.5t112.5 46.5t46.5 112.5v316h-96q-8 0 -8 8v6q0 8 8 8h109q10 0 10 -8v-330q0 -75 -53.5 -128.5 t-128.5 -53.5t-128 53.5t-53 128.5z" />
<glyph unicode="H" horiz-adv-x="641" d="M59 8v993q0 11 9 11h4q8 0 8 -11v-485h319v485q0 11 9 11h6q8 0 8 -11v-993q0 -8 -8 -8h-6q-9 0 -9 8v488h-319v-488q0 -8 -8 -8h-4q-9 0 -9 8z" />
<glyph unicode="I" horiz-adv-x="301" d="M59 8v993q0 11 9 11h4q10 0 10 -11v-993q0 -8 -10 -8h-4q-9 0 -9 8z" />
<glyph unicode="J" horiz-adv-x="641" d="M59 182v45q0 9 9 9h4q10 0 10 -9v-45q0 -66 46 -112.5t112 -46.5t112.5 46.5t46.5 112.5v819q0 11 9 11h6q8 0 8 -11v-819q0 -75 -53.5 -128.5t-128.5 -53.5t-128 53.5t-53 128.5z" />
<glyph unicode="K" d="M59 8v488v20v485q0 3 3 6t6 3h4q10 0 10 -9v-485h160q65 0 111 47t46 113v325q0 9 11 9h4q8 0 8 -9v-325q0 -58 -33 -104.5t-86 -65.5q53 -19 86 -65.5t33 -104.5v-328q0 -8 -8 -8h-4q-11 0 -11 8v328q0 66 -46 113t-111 47h-160v-488q0 -8 -10 -8h-4q-9 0 -9 8z" />
<glyph unicode="L" horiz-adv-x="489" d="M59 12v989q0 11 9 11h4q10 0 10 -11v-978h201q8 0 8 -9v-6q0 -8 -8 -8h-213q-11 0 -11 12z" />
<glyph unicode="M" horiz-adv-x="985" d="M59 8v821q0 74 54 127.5t129 53.5q58 0 104.5 -33t65.5 -86q19 53 65.5 86t104.5 33q75 0 128.5 -53.5t53.5 -127.5v-821q0 -8 -10 -8h-4q-9 0 -9 8v821q0 66 -46.5 112t-112.5 46t-113 -46t-47 -112v-821q0 -8 -8 -8h-4q-9 0 -9 8v821q0 66 -46.5 112t-112.5 46 t-113 -46t-47 -112v-821q0 -8 -8 -8h-6q-9 0 -9 8z" />
<glyph unicode="N" d="M59 8v821q0 75 54 129t129 54t127.5 -54t52.5 -129v-821q0 -8 -8 -8h-4q-11 0 -11 8v821q0 66 -45.5 113t-111.5 47t-113 -47t-47 -113v-821q0 -8 -8 -8h-6q-9 0 -9 8z" />
<glyph unicode="O" d="M59 182v647q0 75 54 129t129 54t127.5 -54t52.5 -129v-647q0 -75 -52.5 -128.5t-127.5 -53.5t-129 53.5t-54 128.5zM82 182q0 -66 47 -112.5t113 -46.5t112.5 46.5t46.5 112.5v647q0 66 -46.5 113t-112.5 47t-113 -47t-47 -113v-647z" />
<glyph unicode="P" horiz-adv-x="600" d="M59 8v488v22v483q0 11 11 11h172q75 0 127.5 -54t52.5 -129v-151q0 -75 -52.5 -128.5t-127.5 -53.5h-160v-488q0 -8 -8 -8h-4q-11 0 -11 8zM82 518h160q66 0 112.5 47t46.5 113v151q0 66 -46.5 113t-112.5 47h-160v-471z" />
<glyph unicode="Q" d="M59 182v649q0 75 54 129t129 54t127.5 -54t52.5 -129v-649q0 -72 -49.5 -123.5t-120.5 -56.5v-121q0 -10 -8 -10h-4q-11 0 -11 10v121q-71 5 -120.5 56.5t-49.5 123.5zM82 182q0 -65 47 -111t113 -46t112.5 46t46.5 111v649q0 66 -46.5 113t-112.5 47t-113 -47t-47 -113 v-649z" />
<glyph unicode="R" horiz-adv-x="630" d="M49 8v991q0 5 4 9t8 4h170q75 0 129 -54t54 -129v-151q0 -59 -33.5 -105t-87.5 -67q54 -19 87.5 -65t33.5 -105v-328q0 -8 -11 -8h-4q-8 0 -8 8v328q0 66 -47 113t-113 47h-159v-488q0 -8 -9 -8h-4q-10 0 -10 8zM72 518h159q66 0 113 47t47 113v151q0 66 -47 113t-113 47 h-159v-471z" />
<glyph unicode="S" horiz-adv-x="600" d="M39 182v39q0 8 10 8h4q8 0 8 -8v-39q0 -66 47 -112.5t113 -46.5t113 46.5t47 112.5v54v-3v5v22q0 13 -8 25l-320 428q-12 15 -12 39v24h-2v53q0 73 53 129q54 54 129 54t128.5 -54t53.5 -129v-38q0 -9 -10 -9h-4q-8 0 -8 9v38q0 66 -47 113t-113 47t-113 -47t-47 -113 v-51v-2v-24q0 -12 9 -25l319 -428q12 -15 12 -39v-22h2v-5v-51q0 -73 -53 -129q-53 -53 -129 -53q-75 0 -128.5 53.5t-53.5 128.5zM39 776z" />
<glyph unicode="T" horiz-adv-x="509" d="M39 997v4q0 11 8 11h254q8 0 8 -11v-4q0 -8 -8 -8h-117v-981q0 -8 -8 -8h-4q-8 0 -8 8v981h-117q-8 0 -8 8z" />
<glyph unicode="U" d="M59 182v819q0 11 11 11h4q8 0 8 -11v-819q0 -66 47 -112.5t113 -46.5t112.5 46.5t46.5 112.5v819q0 11 9 11h4q8 0 8 -11v-819q0 -75 -52.5 -128.5t-127.5 -53.5t-129 53.5t-54 128.5z" />
<glyph unicode="V" d="M59 289v712q0 11 9 11h6q8 0 8 -11v-712q0 -43 20 -76l109 -190h61l109 190q8 15 13 34t6 31l1 11v712q0 11 9 11h4q8 0 8 -11v-712q0 -49 -23 -88l-112 -195q-3 -6 -8 -6h-74q-7 0 -10 6l-111 195q-11 17 -17.5 39t-6.5 36z" />
<glyph unicode="W" horiz-adv-x="983" d="M59 289v712q0 3 3 6t6 3h4q10 0 10 -9v-712q0 -43 18 -78l111 -191h59l109 191q9 16 14 35.5t5 31.5l1 11v712q0 3 3 6t6 3h6q8 0 8 -9v-712q0 -43 20 -78l109 -191h59l111 191q8 16 13 35.5t6 31.5l1 11v712q0 9 9 9h4q8 0 8 -9v-712q0 -49 -23 -88l-112 -197 q-4 -4 -9 -4h-73q-6 0 -10 4l-111 197q-8 11 -12 26q-9 -18 -15 -26l-110 -197q-4 -4 -11 -4h-73q-4 0 -8 4l-113 197q-23 39 -23 88z" />
<glyph unicode="X" d="M59 10v150q0 52 31 100l2 2l135 240l-135 241l-2 2q-31 45 -31 101v155q0 11 11 11h4q8 0 8 -11v-155q0 -30 8 -51l2 -7l150 -262l149 262v7q10 27 10 51v155q0 11 9 11h4q8 0 8 -11v-155q0 -56 -31 -101v-2l-137 -241l137 -240v-2q31 -48 31 -100v-150q0 -10 -8 -10h-4 q-9 0 -9 10v150q0 24 -10 51v4l-149 264l-150 -264l-2 -4q-8 -21 -8 -51v-150q0 -10 -8 -10h-4q-11 0 -11 10z" />
<glyph unicode="Y" horiz-adv-x="602" d="M39 678v323q0 11 8 11h4q8 0 8 -11v-323q0 -66 47 -113t113 -47t113 47t47 113v323q0 11 8 11h4q10 0 10 -11v-323q0 -72 -49.5 -124.5t-120.5 -57.5v-488q0 -8 -10 -8h-4q-8 0 -8 8v488q-72 4 -121 57t-49 125z" />
<glyph unicode="Z" horiz-adv-x="620" d="M59 10v250q0 20 15 39l319 428q8 12 8 25v237h-333q-9 0 -9 8v4q0 11 9 11h346q8 0 8 -11v-249q0 -24 -12 -39l-320 -428q-8 -12 -8 -25v-237h334q8 0 8 -9v-4q0 -10 -8 -10h-346q-11 0 -11 10z" />
<glyph unicode="[" horiz-adv-x="509" d="M59 12v987q0 5 4.5 9t8.5 4h211q10 0 10 -11v-4q0 -8 -10 -8h-201v-966h201q10 0 10 -9v-6q0 -8 -10 -8h-211q-5 0 -9 4t-4 8z" />
<glyph unicode="\" d="M59 752v249q0 11 9 11h4q8 0 8 -11v-249q0 -13 8 -25l322 -430q12 -16 12 -37v-252q0 -8 -10 -8h-4q-9 0 -9 8v252q0 13 -8 25l-319 430q-13 13 -13 37z" />
<glyph unicode="]" horiz-adv-x="509" d="M59 8v6q0 9 11 9h200v966h-200q-11 0 -11 8v4q0 11 11 11h211q4 0 8 -4t4 -9v-987q0 -4 -3.5 -8t-8.5 -4h-211q-11 0 -11 8z" />
<glyph unicode="^" horiz-adv-x="612" d="M57 1157l90 162q4 8 13 8h71q9 0 13 -8l92 -162q3 -6 -6 -6h-8q-10 0 -13 6l-84 148h-59l-84 -148q-3 -6 -12 -6h-9q-10 0 -4 6z" />
<glyph unicode="`" horiz-adv-x="452" d="M57 1321q-3 6 4 6h9q9 0 12 -6l92 -162q4 -8 -4 -8h-8q-11 0 -15 8z" />
<glyph unicode="a" d="M59 8v821q0 75 53.5 129t127.5 54q75 0 128.5 -54t53.5 -129v-821q0 -8 -8 -8h-6q-9 0 -9 8v488h-317v-488q0 -8 -10 -8h-4q-9 0 -9 8zM82 518h317v311q0 66 -46.5 113t-112.5 47q-65 0 -111.5 -47t-46.5 -113v-311z" />
<glyph unicode="b" d="M59 12v987q0 5 4.5 9t8.5 4h170q75 0 127.5 -54t52.5 -129v-153q0 -58 -33 -104.5t-86 -65.5q53 -19 86 -65.5t33 -104.5v-154q0 -75 -52.5 -128.5t-127.5 -53.5h-170q-5 0 -9 4t-4 8zM82 23h160q66 0 112.5 46.5t46.5 112.5v154q0 66 -46.5 113t-112.5 47h-160v-473z M82 516h160q66 0 112.5 47t46.5 113v153q0 66 -46.5 113t-112.5 47h-160v-473z" />
<glyph unicode="c" horiz-adv-x="620" d="M59 182v647q0 75 54 129t129 54t127.5 -54t52.5 -129v-14v-24q0 -9 -8 -9h-4q-3 0 -6 3t-3 6v24v14q0 66 -46.5 113t-112.5 47t-113 -47t-47 -113v-647q0 -66 47 -112.5t113 -46.5t112.5 46.5t46.5 112.5v45q0 11 9 11h4q8 0 8 -11v-45q0 -75 -52.5 -128.5t-127.5 -53.5 t-129 53.5t-54 128.5z" />
<glyph unicode="d" d="M59 12v987q0 5 4.5 9t8.5 4h170q75 0 128.5 -54t53.5 -129v-647q0 -75 -53.5 -128.5t-128.5 -53.5h-170q-5 0 -9 4t-4 8zM82 23h160q66 0 112.5 46.5t46.5 112.5v647q0 66 -46.5 113t-112.5 47h-160v-966z" />
<glyph unicode="e" horiz-adv-x="512" d="M59 12v987q0 13 11 13h213q8 0 8 -11v-4q0 -8 -8 -8h-201v-471h201q8 0 8 -10v-4q0 -8 -8 -8h-201v-473h201q8 0 8 -9v-6q0 -8 -8 -8h-213q-11 0 -11 12z" />
<glyph unicode="f" horiz-adv-x="512" d="M59 8v991q0 13 11 13h213q8 0 8 -11v-4q0 -8 -8 -8h-201v-471h201q8 0 8 -10v-4q0 -8 -8 -8h-201v-488q0 -8 -10 -8h-4q-9 0 -9 8z" />
<glyph unicode="g" horiz-adv-x="641" d="M59 182v647q0 75 53 129t128 54t128.5 -54t53.5 -129v-38q0 -9 -10 -9h-4q-3 0 -6 3t-3 6v38q0 66 -46.5 113t-112.5 47t-113 -47t-47 -113v-647q0 -66 47 -112.5t113 -46.5t112.5 46.5t46.5 112.5v316h-96q-8 0 -8 8v6q0 8 8 8h109q10 0 10 -8v-330q0 -75 -53.5 -128.5 t-128.5 -53.5t-128 53.5t-53 128.5z" />
<glyph unicode="h" horiz-adv-x="641" d="M59 8v993q0 11 9 11h4q8 0 8 -11v-485h319v485q0 11 9 11h6q8 0 8 -11v-993q0 -8 -8 -8h-6q-9 0 -9 8v488h-319v-488q0 -8 -8 -8h-4q-9 0 -9 8z" />
<glyph unicode="i" horiz-adv-x="301" d="M59 8v993q0 11 9 11h4q10 0 10 -11v-993q0 -8 -10 -8h-4q-9 0 -9 8z" />
<glyph unicode="j" horiz-adv-x="641" d="M59 182v45q0 9 9 9h4q10 0 10 -9v-45q0 -66 46 -112.5t112 -46.5t112.5 46.5t46.5 112.5v819q0 11 9 11h6q8 0 8 -11v-819q0 -75 -53.5 -128.5t-128.5 -53.5t-128 53.5t-53 128.5z" />
<glyph unicode="k" d="M59 8v488v20v485q0 3 3 6t6 3h4q10 0 10 -9v-485h160q65 0 111 47t46 113v325q0 9 11 9h4q8 0 8 -9v-325q0 -58 -33 -104.5t-86 -65.5q53 -19 86 -65.5t33 -104.5v-328q0 -8 -8 -8h-4q-11 0 -11 8v328q0 66 -46 113t-111 47h-160v-488q0 -8 -10 -8h-4q-9 0 -9 8z" />
<glyph unicode="l" horiz-adv-x="489" d="M59 12v989q0 11 9 11h4q10 0 10 -11v-978h201q8 0 8 -9v-6q0 -8 -8 -8h-213q-11 0 -11 12z" />
<glyph unicode="m" horiz-adv-x="985" d="M59 8v821q0 74 54 127.5t129 53.5q58 0 104.5 -33t65.5 -86q19 53 65.5 86t104.5 33q75 0 128.5 -53.5t53.5 -127.5v-821q0 -8 -10 -8h-4q-9 0 -9 8v821q0 66 -46.5 112t-112.5 46t-113 -46t-47 -112v-821q0 -8 -8 -8h-4q-9 0 -9 8v821q0 66 -46.5 112t-112.5 46 t-113 -46t-47 -112v-821q0 -8 -8 -8h-6q-9 0 -9 8z" />
<glyph unicode="n" d="M59 8v821q0 75 54 129t129 54t127.5 -54t52.5 -129v-821q0 -8 -8 -8h-4q-11 0 -11 8v821q0 66 -45.5 113t-111.5 47t-113 -47t-47 -113v-821q0 -8 -8 -8h-6q-9 0 -9 8z" />
<glyph unicode="o" d="M59 182v647q0 75 54 129t129 54t127.5 -54t52.5 -129v-647q0 -75 -52.5 -128.5t-127.5 -53.5t-129 53.5t-54 128.5zM82 182q0 -66 47 -112.5t113 -46.5t112.5 46.5t46.5 112.5v647q0 66 -46.5 113t-112.5 47t-113 -47t-47 -113v-647z" />
<glyph unicode="p" horiz-adv-x="600" d="M59 8v488v22v483q0 11 11 11h172q75 0 127.5 -54t52.5 -129v-151q0 -75 -52.5 -128.5t-127.5 -53.5h-160v-488q0 -8 -8 -8h-4q-11 0 -11 8zM82 518h160q66 0 112.5 47t46.5 113v151q0 66 -46.5 113t-112.5 47h-160v-471z" />
<glyph unicode="q" d="M59 182v649q0 75 54 129t129 54t127.5 -54t52.5 -129v-649q0 -72 -49.5 -123.5t-120.5 -56.5v-121q0 -10 -8 -10h-4q-11 0 -11 10v121q-71 5 -120.5 56.5t-49.5 123.5zM82 182q0 -65 47 -111t113 -46t112.5 46t46.5 111v649q0 66 -46.5 113t-112.5 47t-113 -47t-47 -113 v-649z" />
<glyph unicode="r" horiz-adv-x="630" d="M49 8v991q0 5 4 9t8 4h170q75 0 129 -54t54 -129v-151q0 -59 -33.5 -105t-87.5 -67q54 -19 87.5 -65t33.5 -105v-328q0 -8 -11 -8h-4q-8 0 -8 8v328q0 66 -47 113t-113 47h-159v-488q0 -8 -9 -8h-4q-10 0 -10 8zM72 518h159q66 0 113 47t47 113v151q0 66 -47 113t-113 47 h-159v-471z" />
<glyph unicode="s" horiz-adv-x="600" d="M39 182v39q0 8 10 8h4q8 0 8 -8v-39q0 -66 47 -112.5t113 -46.5t113 46.5t47 112.5v54v-3v5v22q0 13 -8 25l-320 428q-12 15 -12 39v24h-2v53q0 73 53 129q54 54 129 54t128.5 -54t53.5 -129v-38q0 -9 -10 -9h-4q-8 0 -8 9v38q0 66 -47 113t-113 47t-113 -47t-47 -113 v-51v-2v-24q0 -12 9 -25l319 -428q12 -15 12 -39v-22h2v-5v-51q0 -73 -53 -129q-53 -53 -129 -53q-75 0 -128.5 53.5t-53.5 128.5zM39 776z" />
<glyph unicode="t" horiz-adv-x="509" d="M39 997v4q0 11 8 11h254q8 0 8 -11v-4q0 -8 -8 -8h-117v-981q0 -8 -8 -8h-4q-8 0 -8 8v981h-117q-8 0 -8 8z" />
<glyph unicode="u" d="M59 182v819q0 11 11 11h4q8 0 8 -11v-819q0 -66 47 -112.5t113 -46.5t112.5 46.5t46.5 112.5v819q0 11 9 11h4q8 0 8 -11v-819q0 -75 -52.5 -128.5t-127.5 -53.5t-129 53.5t-54 128.5z" />
<glyph unicode="v" d="M59 289v712q0 11 9 11h6q8 0 8 -11v-712q0 -43 20 -76l109 -190h61l109 190q8 15 13 34t6 31l1 11v712q0 11 9 11h4q8 0 8 -11v-712q0 -49 -23 -88l-112 -195q-3 -6 -8 -6h-74q-7 0 -10 6l-111 195q-11 17 -17.5 39t-6.5 36z" />
<glyph unicode="w" horiz-adv-x="983" d="M59 289v712q0 3 3 6t6 3h4q10 0 10 -9v-712q0 -43 18 -78l111 -191h59l109 191q9 16 14 35.5t5 31.5l1 11v712q0 3 3 6t6 3h6q8 0 8 -9v-712q0 -43 20 -78l109 -191h59l111 191q8 16 13 35.5t6 31.5l1 11v712q0 9 9 9h4q8 0 8 -9v-712q0 -49 -23 -88l-112 -197 q-4 -4 -9 -4h-73q-6 0 -10 4l-111 197q-8 11 -12 26q-9 -18 -15 -26l-110 -197q-4 -4 -11 -4h-73q-4 0 -8 4l-113 197q-23 39 -23 88z" />
<glyph unicode="x" d="M59 10v150q0 52 31 100l2 2l135 240l-135 241l-2 2q-31 45 -31 101v155q0 11 11 11h4q8 0 8 -11v-155q0 -30 8 -51l2 -7l150 -262l149 262v7q10 27 10 51v155q0 11 9 11h4q8 0 8 -11v-155q0 -56 -31 -101v-2l-137 -241l137 -240v-2q31 -48 31 -100v-150q0 -10 -8 -10h-4 q-9 0 -9 10v150q0 24 -10 51v4l-149 264l-150 -264l-2 -4q-8 -21 -8 -51v-150q0 -10 -8 -10h-4q-11 0 -11 10z" />
<glyph unicode="y" horiz-adv-x="602" d="M39 678v323q0 11 8 11h4q8 0 8 -11v-323q0 -66 47 -113t113 -47t113 47t47 113v323q0 11 8 11h4q10 0 10 -11v-323q0 -72 -49.5 -124.5t-120.5 -57.5v-488q0 -8 -10 -8h-4q-8 0 -8 8v488q-72 4 -121 57t-49 125z" />
<glyph unicode="z" horiz-adv-x="620" d="M59 10v250q0 20 15 39l319 428q8 12 8 25v237h-333q-9 0 -9 8v4q0 11 9 11h346q8 0 8 -11v-249q0 -24 -12 -39l-320 -428q-8 -12 -8 -25v-237h334q8 0 8 -9v-4q0 -10 -8 -10h-346q-11 0 -11 10z" />
<glyph unicode="&#xa1;" horiz-adv-x="301" d="M59 -115v793q0 8 11 8h4q8 0 8 -8v-793q0 -8 -8 -8h-4q-11 0 -11 8zM59 827v179q0 8 11 8h4q8 0 8 -8v-179q0 -8 -8 -8h-4q-11 0 -11 8z" />
<glyph unicode="&#xa8;" horiz-adv-x="509" d="M59 1157v76q0 8 11 8h4q8 0 8 -8v-76q0 -8 -8 -8h-4q-11 0 -11 8zM270 1157v76q0 8 9 8h4q10 0 10 -8v-76q0 -8 -10 -8h-4q-9 0 -9 8z" />
<glyph unicode="&#xad;" horiz-adv-x="571" d="M59 504v4q0 8 9 8h274q8 0 8 -8v-4q0 -10 -8 -10h-274q-9 0 -9 10z" />
<glyph unicode="&#xaf;" horiz-adv-x="1705" />
<glyph unicode="&#xb4;" horiz-adv-x="450" d="M55 1159l90 162q3 6 15 6h8q7 0 4 -6l-90 -162q-8 -8 -14 -8h-9q-8 0 -4 8z" />
<glyph unicode="&#xb7;" horiz-adv-x="1705" />
<glyph unicode="&#xb8;" horiz-adv-x="1705" />
<glyph unicode="&#xbf;" horiz-adv-x="641" d="M59 57v2v-2zM59 57v2v23q0 17 13 39l319 426q8 12 8 26v11v14v78q0 8 9 8h4q10 0 10 -8v-78v-14v-11q0 -21 -14 -38l-318 -429q-8 -8 -8 -24v-23v-4q0 -64 46.5 -110.5t111.5 -46.5q66 0 112.5 46.5t46.5 112.5v39q0 8 9 8h4q10 0 10 -8v-39q0 -75 -53.5 -128.5 t-128.5 -53.5q-74 0 -127 53q-54 54 -54 129zM115 115v2v-2zM399 825v179q0 8 9 8h4q10 0 10 -8v-179q0 -8 -10 -8h-4q-9 0 -9 8z" />
<glyph unicode="&#xc0;" d="M59 8v821q0 75 53.5 129t127.5 54q75 0 128.5 -54t53.5 -129v-821q0 -8 -8 -8h-6q-9 0 -9 8v488h-317v-488q0 -8 -10 -8h-4q-9 0 -9 8zM82 518h317v311q0 66 -46.5 113t-112.5 47q-65 0 -111.5 -47t-46.5 -113v-311zM104 1321q-3 6 5 6h8q9 0 12 -6l92 -162q4 -8 -4 -8 h-8q-10 0 -14 8z" />
<glyph unicode="&#xc1;" d="M59 8v821q0 75 53.5 129t127.5 54q75 0 128.5 -54t53.5 -129v-821q0 -8 -8 -8h-6q-9 0 -9 8v488h-317v-488q0 -8 -10 -8h-4q-9 0 -9 8zM82 518h317v311q0 66 -46.5 113t-112.5 47q-65 0 -111.5 -47t-46.5 -113v-311zM252 1159l90 162q3 6 14 6h9q7 0 4 -6l-90 -162 q-8 -8 -15 -8h-8q-8 0 -4 8z" />
<glyph unicode="&#xc2;" d="M59 8v821q0 75 53.5 129t127.5 54q75 0 128.5 -54t53.5 -129v-821q0 -8 -8 -8h-6q-9 0 -9 8v488h-317v-488q0 -8 -10 -8h-4q-9 0 -9 8zM82 518h317v311q0 66 -46.5 113t-112.5 47q-65 0 -111.5 -47t-46.5 -113v-311zM102 1159l91 162q3 6 14 6h69q9 0 15 -6l90 -162 q4 -8 -4 -8h-8q-11 0 -15 8l-82 148h-61l-84 -148q-4 -8 -12 -8h-9q-8 0 -4 8z" />
<glyph unicode="&#xc3;" horiz-adv-x="1705" />
<glyph unicode="&#xc4;" d="M59 8v821q0 75 53.5 129t127.5 54q75 0 128.5 -54t53.5 -129v-821q0 -8 -8 -8h-6q-9 0 -9 8v488h-317v-488q0 -8 -10 -8h-4q-9 0 -9 8zM82 518h317v311q0 66 -46.5 113t-112.5 47q-65 0 -111.5 -47t-46.5 -113v-311zM125 1157v76q0 8 10 8h4q8 0 8 -8v-76q0 -8 -8 -8h-4 q-10 0 -10 8zM336 1157v76q0 8 8 8h4q10 0 10 -8v-76q0 -8 -10 -8h-4q-8 0 -8 8z" />
<glyph unicode="&#xc5;" horiz-adv-x="1705" />
<glyph unicode="&#xc6;" horiz-adv-x="1705" />
<glyph unicode="&#xc7;" horiz-adv-x="641" d="M59 180v649q0 75 53 128t128 53t128.5 -53t53.5 -128v-16h-23v16q0 66 -46.5 113t-112.5 47t-112 -47t-46 -113v-649q0 -66 46 -111.5t112 -45.5t112.5 45.5t46.5 111.5v47q0 3 3 6t6 3h6q8 0 8 -9v-47q0 -72 -49.5 -123.5t-120.5 -56.5v-119q0 -8 -10 -8h-4q-9 0 -9 8 v119q-71 5 -120.5 56.5t-49.5 123.5zM399 791v22h23v-22q0 -11 -8 -11h-6q-9 0 -9 11z" />
<glyph unicode="&#xc8;" horiz-adv-x="512" d="M4 12v987q0 13 10 13h213q9 0 9 -11v-4q0 -8 -9 -8h-200v-471h200q9 0 9 -10v-4q0 -8 -9 -8h-200v-473h200q3 0 6 -3t3 -6v-6q0 -8 -9 -8h-213q-10 0 -10 12zM6 1321q-3 6 4 6h8q10 0 13 -6l92 -162q4 -8 -4 -8h-8q-11 0 -15 8z" />
<glyph unicode="&#xc9;" horiz-adv-x="550" d="M59 12v987q0 13 11 13h213q8 0 8 -11v-4q0 -8 -8 -8h-201v-471h201q8 0 8 -10v-4q0 -8 -8 -8h-201v-473h201q8 0 8 -9v-6q0 -8 -8 -8h-213q-11 0 -11 12zM172 1159l90 162q3 6 14 6h9q7 0 4 -6l-90 -162q-8 -8 -15 -8h-8q-8 0 -4 8z" />
<glyph unicode="&#xca;" horiz-adv-x="512" d="M8 1157l90 162q4 8 13 8h71q9 0 13 -8l92 -162q3 -6 -6 -6h-9q-9 0 -12 6l-84 148h-59l-84 -148q-3 -6 -13 -6h-8q-10 0 -4 6zM31 12v987q0 13 10 13h213q8 0 8 -11v-4q0 -8 -8 -8h-201v-471h201q8 0 8 -10v-4q0 -8 -8 -8h-201v-473h201q8 0 8 -9v-6q0 -8 -8 -8h-213 q-10 0 -10 12z" />
<glyph unicode="&#xcb;" horiz-adv-x="512" d="M59 1157v76q0 8 11 8h4q8 0 8 -8v-76q0 -8 -8 -8h-4q-11 0 -11 8zM61 12v987q0 13 11 13h213q8 0 8 -11v-4q0 -8 -8 -8h-201v-471h201q8 0 8 -10v-4q0 -8 -8 -8h-201v-473h201q8 0 8 -9v-6q0 -8 -8 -8h-213q-11 0 -11 12zM270 1157v76q0 8 9 8h4q10 0 10 -8v-76 q0 -8 -10 -8h-4q-9 0 -9 8z" />
<glyph unicode="&#xcc;" horiz-adv-x="301" d="M-96 1319q-4 8 4 8h8q6 0 14 -8l90 -162q3 -6 -4 -6h-8q-11 0 -14 6zM29 8v993q0 11 8 11h4q10 0 10 -11v-993q0 -8 -10 -8h-4q-8 0 -8 8z" />
<glyph unicode="&#xcd;" horiz-adv-x="301" d="M49 8q0 -8 8 -8h4q11 0 11 8v993q0 11 -11 11h-4q-8 0 -8 -11v-993zM72 1159l92 160q3 8 12 8h8q9 0 4 -8l-90 -160q-4 -8 -12 -8h-10q-8 0 -4 8z" />
<glyph unicode="&#xce;" horiz-adv-x="301" d="M-100 1159l92 160q4 8 12 8h72q8 0 12 -8l90 -160q3 -3 1.5 -5.5t-5.5 -2.5h-8q-8 0 -12 8l-84 146h-60l-84 -146q-4 -8 -12 -8h-8q-10 0 -6 8zM29 8q0 -8 8 -8h4q10 0 10 8v993q0 11 -10 11h-4q-8 0 -8 -11v-993z" />
<glyph unicode="&#xcf;" horiz-adv-x="301" d="M-45 1157v76q0 8 10 8h4q8 0 8 -8v-76q0 -8 -8 -8h-4q-10 0 -10 8zM61 8q0 -8 9 -8h4q10 0 10 8v993q0 11 -10 11h-4q-9 0 -9 -11v-993zM166 1157v76q0 8 8 8h4q10 0 10 -8v-76q0 -8 -10 -8h-4q-8 0 -8 8z" />
<glyph unicode="&#xd1;" horiz-adv-x="641" d="M59 8v821q0 75 54 129t129 54t127.5 -54t52.5 -129v-821q0 -8 -8 -8h-4q-11 0 -11 8v821q0 66 -45.5 113t-111.5 47t-113 -47t-47 -113v-821q0 -8 -8 -8h-6q-9 0 -9 8zM125 1157v6q0 8 8 8h215q8 0 8 -8v-6q0 -8 -8 -8h-215q-8 0 -8 8z" />
<glyph unicode="&#xd2;" d="M59 182q0 -75 54 -128.5t129 -53.5t127.5 53.5t52.5 128.5v647q0 75 -52.5 129t-127.5 54t-129 -54t-54 -129v-647zM82 182v647q0 66 47 113t113 47t112.5 -47t46.5 -113v-647q0 -66 -46.5 -112.5t-112.5 -46.5t-113 46.5t-47 112.5zM104 1321q-3 6 5 6h8q9 0 12 -6 l92 -162q4 -8 -4 -8h-8q-10 0 -14 8z" />
<glyph unicode="&#xd3;" d="M59 182q0 -75 54 -128.5t129 -53.5t127.5 53.5t52.5 128.5v647q0 75 -52.5 129t-127.5 54t-129 -54t-54 -129v-647zM82 182v647q0 66 47 113t113 47t112.5 -47t46.5 -113v-647q0 -66 -46.5 -112.5t-112.5 -46.5t-113 46.5t-47 112.5zM252 1159l90 162q3 6 14 6h9 q7 0 4 -6l-90 -162q-8 -8 -15 -8h-8q-8 0 -4 8z" />
<glyph unicode="&#xd4;" horiz-adv-x="641" d="M59 182q0 -75 54 -128.5t129 -53.5t127.5 53.5t52.5 128.5v647q0 75 -52.5 129t-127.5 54t-129 -54t-54 -129v-647zM82 182v647q0 66 47 113t113 47t112.5 -47t46.5 -113v-647q0 -66 -46.5 -112.5t-112.5 -46.5t-113 46.5t-47 112.5zM102 1159l91 162q3 6 14 6h69 q9 0 15 -6l90 -162q4 -8 -4 -8h-8q-11 0 -15 8l-82 148h-61l-84 -148q-4 -8 -12 -8h-9q-8 0 -4 8z" />
<glyph unicode="&#xd5;" horiz-adv-x="1705" />
<glyph unicode="&#xd6;" d="M59 182q0 -75 54 -128.5t129 -53.5t127.5 53.5t52.5 128.5v647q0 75 -52.5 129t-127.5 54t-129 -54t-54 -129v-647zM82 182v647q0 66 47 113t113 47t112.5 -47t46.5 -113v-647q0 -66 -46.5 -112.5t-112.5 -46.5t-113 46.5t-47 112.5zM125 1157v76q0 8 10 8h4q8 0 8 -8 v-76q0 -8 -8 -8h-4q-10 0 -10 8zM336 1157v76q0 8 8 8h4q10 0 10 -8v-76q0 -8 -10 -8h-4q-8 0 -8 8z" />
<glyph unicode="&#xd8;" horiz-adv-x="1705" />
<glyph unicode="&#xd9;" d="M59 182q0 -75 54 -128.5t129 -53.5t127.5 53.5t52.5 128.5v819q0 11 -8 11h-4q-9 0 -9 -11v-819q0 -66 -46.5 -112.5t-112.5 -46.5t-113 46.5t-47 112.5v819q0 11 -8 11h-4q-11 0 -11 -11v-819zM104 1321q-3 6 5 6h8q9 0 12 -6l92 -162q4 -8 -4 -8h-8q-10 0 -14 8z" />
<glyph unicode="&#xda;" d="M59 182q0 -75 54 -128.5t129 -53.5t127.5 53.5t52.5 128.5v819q0 11 -8 11h-4q-9 0 -9 -11v-819q0 -66 -46.5 -112.5t-112.5 -46.5t-113 46.5t-47 112.5v819q0 11 -8 11h-4q-11 0 -11 -11v-819zM252 1159l90 162q3 6 14 6h9q7 0 4 -6l-90 -162q-8 -8 -15 -8h-8q-8 0 -4 8 z" />
<glyph unicode="&#xdb;" d="M59 182q0 -75 54 -128.5t129 -53.5t127.5 53.5t52.5 128.5v819q0 11 -8 11h-4q-9 0 -9 -11v-819q0 -66 -46.5 -112.5t-112.5 -46.5t-113 46.5t-47 112.5v819q0 11 -8 11h-4q-11 0 -11 -11v-819zM102 1159l91 162q3 6 14 6h69q9 0 15 -6l90 -162q4 -8 -4 -8h-8 q-11 0 -15 8l-82 148h-61l-84 -148q-4 -8 -12 -8h-9q-8 0 -4 8z" />
<glyph unicode="&#xdc;" d="M59 182q0 -75 54 -128.5t129 -53.5t127.5 53.5t52.5 128.5v819q0 11 -8 11h-4q-9 0 -9 -11v-819q0 -66 -46.5 -112.5t-112.5 -46.5t-113 46.5t-47 112.5v819q0 11 -8 11h-4q-11 0 -11 -11v-819zM125 1157v76q0 8 10 8h4q8 0 8 -8v-76q0 -8 -8 -8h-4q-10 0 -10 8z M336 1157v76q0 8 8 8h4q10 0 10 -8v-76q0 -8 -10 -8h-4q-8 0 -8 8z" />
<glyph unicode="&#xdd;" horiz-adv-x="1705" />
<glyph unicode="&#xe0;" d="M59 8v821q0 75 53.5 129t127.5 54q75 0 128.5 -54t53.5 -129v-821q0 -8 -8 -8h-6q-9 0 -9 8v488h-317v-488q0 -8 -10 -8h-4q-9 0 -9 8zM82 518h317v311q0 66 -46.5 113t-112.5 47q-65 0 -111.5 -47t-46.5 -113v-311zM104 1321q-3 6 5 6h8q9 0 12 -6l92 -162q4 -8 -4 -8 h-8q-10 0 -14 8z" />
<glyph unicode="&#xe1;" d="M59 8v821q0 75 53.5 129t127.5 54q75 0 128.5 -54t53.5 -129v-821q0 -8 -8 -8h-6q-9 0 -9 8v488h-317v-488q0 -8 -10 -8h-4q-9 0 -9 8zM82 518h317v311q0 66 -46.5 113t-112.5 47q-65 0 -111.5 -47t-46.5 -113v-311zM252 1159l90 162q3 6 14 6h9q7 0 4 -6l-90 -162 q-8 -8 -15 -8h-8q-8 0 -4 8z" />
<glyph unicode="&#xe2;" d="M59 8v821q0 75 53.5 129t127.5 54q75 0 128.5 -54t53.5 -129v-821q0 -8 -8 -8h-6q-9 0 -9 8v488h-317v-488q0 -8 -10 -8h-4q-9 0 -9 8zM82 518h317v311q0 66 -46.5 113t-112.5 47q-65 0 -111.5 -47t-46.5 -113v-311zM102 1159l91 162q3 6 14 6h69q9 0 15 -6l90 -162 q4 -8 -4 -8h-8q-11 0 -15 8l-82 148h-61l-84 -148q-4 -8 -12 -8h-9q-8 0 -4 8z" />
<glyph unicode="&#xe4;" d="M59 8v821q0 75 53.5 129t127.5 54q75 0 128.5 -54t53.5 -129v-821q0 -8 -8 -8h-6q-9 0 -9 8v488h-317v-488q0 -8 -10 -8h-4q-9 0 -9 8zM82 518h317v311q0 66 -46.5 113t-112.5 47q-65 0 -111.5 -47t-46.5 -113v-311zM125 1157v76q0 8 10 8h4q8 0 8 -8v-76q0 -8 -8 -8h-4 q-10 0 -10 8zM336 1157v76q0 8 8 8h4q10 0 10 -8v-76q0 -8 -10 -8h-4q-8 0 -8 8z" />
<glyph unicode="&#xe7;" horiz-adv-x="641" d="M59 180v649q0 75 53 128t128 53t128.5 -53t53.5 -128v-16h-23v16q0 66 -46.5 113t-112.5 47t-112 -47t-46 -113v-649q0 -66 46 -111.5t112 -45.5t112.5 45.5t46.5 111.5v47q0 3 3 6t6 3h6q8 0 8 -9v-47q0 -72 -49.5 -123.5t-120.5 -56.5v-119q0 -8 -10 -8h-4q-9 0 -9 8 v119q-71 5 -120.5 56.5t-49.5 123.5zM399 791v22h23v-22q0 -11 -8 -11h-6q-9 0 -9 11z" />
<glyph unicode="&#xe8;" horiz-adv-x="512" d="M4 12v987q0 13 10 13h213q9 0 9 -11v-4q0 -8 -9 -8h-200v-471h200q9 0 9 -10v-4q0 -8 -9 -8h-200v-473h200q3 0 6 -3t3 -6v-6q0 -8 -9 -8h-213q-10 0 -10 12zM6 1321q-3 6 4 6h8q10 0 13 -6l92 -162q4 -8 -4 -8h-8q-11 0 -15 8z" />
<glyph unicode="&#xe9;" horiz-adv-x="550" d="M59 12v987q0 13 11 13h213q8 0 8 -11v-4q0 -8 -8 -8h-201v-471h201q8 0 8 -10v-4q0 -8 -8 -8h-201v-473h201q8 0 8 -9v-6q0 -8 -8 -8h-213q-11 0 -11 12zM172 1159l90 162q3 6 14 6h9q7 0 4 -6l-90 -162q-8 -8 -15 -8h-8q-8 0 -4 8z" />
<glyph unicode="&#xea;" horiz-adv-x="512" d="M8 1157l90 162q4 8 13 8h71q9 0 13 -8l92 -162q3 -6 -6 -6h-9q-9 0 -12 6l-84 148h-59l-84 -148q-3 -6 -13 -6h-8q-10 0 -4 6zM31 12v987q0 13 10 13h213q8 0 8 -11v-4q0 -8 -8 -8h-201v-471h201q8 0 8 -10v-4q0 -8 -8 -8h-201v-473h201q8 0 8 -9v-6q0 -8 -8 -8h-213 q-10 0 -10 12z" />
<glyph unicode="&#xeb;" horiz-adv-x="512" d="M59 1157v76q0 8 11 8h4q8 0 8 -8v-76q0 -8 -8 -8h-4q-11 0 -11 8zM61 12v987q0 13 11 13h213q8 0 8 -11v-4q0 -8 -8 -8h-201v-471h201q8 0 8 -10v-4q0 -8 -8 -8h-201v-473h201q8 0 8 -9v-6q0 -8 -8 -8h-213q-11 0 -11 12zM270 1157v76q0 8 9 8h4q10 0 10 -8v-76 q0 -8 -10 -8h-4q-9 0 -9 8z" />
<glyph unicode="&#xec;" horiz-adv-x="301" d="M-96 1319q-4 8 4 8h8q6 0 14 -8l90 -162q3 -6 -4 -6h-8q-11 0 -14 6zM29 8v993q0 11 8 11h4q10 0 10 -11v-993q0 -8 -10 -8h-4q-8 0 -8 8z" />
<glyph unicode="&#xed;" horiz-adv-x="301" d="M49 8q0 -8 8 -8h4q11 0 11 8v993q0 11 -11 11h-4q-8 0 -8 -11v-993zM72 1159l92 160q3 8 12 8h8q9 0 4 -8l-90 -160q-4 -8 -12 -8h-10q-8 0 -4 8z" />
<glyph unicode="&#xee;" horiz-adv-x="301" d="M-100 1159l92 160q4 8 12 8h72q8 0 12 -8l90 -160q3 -3 1.5 -5.5t-5.5 -2.5h-8q-8 0 -12 8l-84 146h-60l-84 -146q-4 -8 -12 -8h-8q-10 0 -6 8zM29 8q0 -8 8 -8h4q10 0 10 8v993q0 11 -10 11h-4q-8 0 -8 -11v-993z" />
<glyph unicode="&#xef;" horiz-adv-x="301" d="M-45 1157v76q0 8 10 8h4q8 0 8 -8v-76q0 -8 -8 -8h-4q-10 0 -10 8zM61 8q0 -8 9 -8h4q10 0 10 8v993q0 11 -10 11h-4q-9 0 -9 -11v-993zM166 1157v76q0 8 8 8h4q10 0 10 -8v-76q0 -8 -10 -8h-4q-8 0 -8 8z" />
<glyph unicode="&#xf1;" horiz-adv-x="641" d="M59 8v821q0 75 54 129t129 54t127.5 -54t52.5 -129v-821q0 -8 -8 -8h-4q-11 0 -11 8v821q0 66 -45.5 113t-111.5 47t-113 -47t-47 -113v-821q0 -8 -8 -8h-6q-9 0 -9 8zM125 1157v6q0 8 8 8h215q8 0 8 -8v-6q0 -8 -8 -8h-215q-8 0 -8 8z" />
<glyph unicode="&#xf2;" d="M59 182q0 -75 54 -128.5t129 -53.5t127.5 53.5t52.5 128.5v647q0 75 -52.5 129t-127.5 54t-129 -54t-54 -129v-647zM82 182v647q0 66 47 113t113 47t112.5 -47t46.5 -113v-647q0 -66 -46.5 -112.5t-112.5 -46.5t-113 46.5t-47 112.5zM104 1321q-3 6 5 6h8q9 0 12 -6 l92 -162q4 -8 -4 -8h-8q-10 0 -14 8z" />
<glyph unicode="&#xf3;" d="M59 182q0 -75 54 -128.5t129 -53.5t127.5 53.5t52.5 128.5v647q0 75 -52.5 129t-127.5 54t-129 -54t-54 -129v-647zM82 182v647q0 66 47 113t113 47t112.5 -47t46.5 -113v-647q0 -66 -46.5 -112.5t-112.5 -46.5t-113 46.5t-47 112.5zM252 1159l90 162q3 6 14 6h9 q7 0 4 -6l-90 -162q-8 -8 -15 -8h-8q-8 0 -4 8z" />
<glyph unicode="&#xf4;" horiz-adv-x="641" d="M59 182q0 -75 54 -128.5t129 -53.5t127.5 53.5t52.5 128.5v647q0 75 -52.5 129t-127.5 54t-129 -54t-54 -129v-647zM82 182v647q0 66 47 113t113 47t112.5 -47t46.5 -113v-647q0 -66 -46.5 -112.5t-112.5 -46.5t-113 46.5t-47 112.5zM102 1159l91 162q3 6 14 6h69 q9 0 15 -6l90 -162q4 -8 -4 -8h-8q-11 0 -15 8l-82 148h-61l-84 -148q-4 -8 -12 -8h-9q-8 0 -4 8z" />
<glyph unicode="&#xf6;" d="M59 182q0 -75 54 -128.5t129 -53.5t127.5 53.5t52.5 128.5v647q0 75 -52.5 129t-127.5 54t-129 -54t-54 -129v-647zM82 182v647q0 66 47 113t113 47t112.5 -47t46.5 -113v-647q0 -66 -46.5 -112.5t-112.5 -46.5t-113 46.5t-47 112.5zM125 1157v76q0 8 10 8h4q8 0 8 -8 v-76q0 -8 -8 -8h-4q-10 0 -10 8zM336 1157v76q0 8 8 8h4q10 0 10 -8v-76q0 -8 -10 -8h-4q-8 0 -8 8z" />
<glyph unicode="&#xf9;" d="M59 182q0 -75 54 -128.5t129 -53.5t127.5 53.5t52.5 128.5v819q0 11 -8 11h-4q-9 0 -9 -11v-819q0 -66 -46.5 -112.5t-112.5 -46.5t-113 46.5t-47 112.5v819q0 11 -8 11h-4q-11 0 -11 -11v-819zM104 1321q-3 6 5 6h8q9 0 12 -6l92 -162q4 -8 -4 -8h-8q-10 0 -14 8z" />
<glyph unicode="&#xfa;" d="M59 182q0 -75 54 -128.5t129 -53.5t127.5 53.5t52.5 128.5v819q0 11 -8 11h-4q-9 0 -9 -11v-819q0 -66 -46.5 -112.5t-112.5 -46.5t-113 46.5t-47 112.5v819q0 11 -8 11h-4q-11 0 -11 -11v-819zM252 1159l90 162q3 6 14 6h9q7 0 4 -6l-90 -162q-8 -8 -15 -8h-8q-8 0 -4 8 z" />
<glyph unicode="&#xfb;" d="M59 182q0 -75 54 -128.5t129 -53.5t127.5 53.5t52.5 128.5v819q0 11 -8 11h-4q-9 0 -9 -11v-819q0 -66 -46.5 -112.5t-112.5 -46.5t-113 46.5t-47 112.5v819q0 11 -8 11h-4q-11 0 -11 -11v-819zM102 1159l91 162q3 6 14 6h69q9 0 15 -6l90 -162q4 -8 -4 -8h-8 q-11 0 -15 8l-82 148h-61l-84 -148q-4 -8 -12 -8h-9q-8 0 -4 8z" />
<glyph unicode="&#xfc;" d="M59 182q0 -75 54 -128.5t129 -53.5t127.5 53.5t52.5 128.5v819q0 11 -8 11h-4q-9 0 -9 -11v-819q0 -66 -46.5 -112.5t-112.5 -46.5t-113 46.5t-47 112.5v819q0 11 -8 11h-4q-11 0 -11 -11v-819zM125 1157v76q0 8 10 8h4q8 0 8 -8v-76q0 -8 -8 -8h-4q-10 0 -10 8z M336 1157v76q0 8 8 8h4q10 0 10 -8v-76q0 -8 -10 -8h-4q-8 0 -8 8z" />
<glyph unicode="&#x152;" horiz-adv-x="3411" />
<glyph unicode="&#x178;" horiz-adv-x="1705" />
<glyph unicode="&#x2c6;" horiz-adv-x="1705" />
<glyph unicode="&#x2dc;" horiz-adv-x="1705" />
<glyph unicode="&#x2000;" horiz-adv-x="682" />
<glyph unicode="&#x2001;" horiz-adv-x="1365" />
<glyph unicode="&#x2002;" horiz-adv-x="682" />
<glyph unicode="&#x2003;" horiz-adv-x="1365" />
<glyph unicode="&#x2004;" horiz-adv-x="455" />
<glyph unicode="&#x2005;" horiz-adv-x="341" />
<glyph unicode="&#x2006;" horiz-adv-x="227" />
<glyph unicode="&#x2007;" horiz-adv-x="227" />
<glyph unicode="&#x2008;" horiz-adv-x="170" />
<glyph unicode="&#x2009;" horiz-adv-x="273" />
<glyph unicode="&#x200a;" horiz-adv-x="75" />
<glyph unicode="&#x2010;" horiz-adv-x="571" d="M59 504v4q0 8 9 8h274q8 0 8 -8v-4q0 -10 -8 -10h-274q-9 0 -9 10z" />
<glyph unicode="&#x2011;" horiz-adv-x="571" d="M59 504v4q0 8 9 8h274q8 0 8 -8v-4q0 -10 -8 -10h-274q-9 0 -9 10z" />
<glyph unicode="&#x2012;" horiz-adv-x="571" d="M59 504v4q0 8 9 8h274q8 0 8 -8v-4q0 -10 -8 -10h-274q-9 0 -9 10z" />
<glyph unicode="&#x2013;" horiz-adv-x="1304" d="M59 504v4q0 8 32 8h964q28 0 28 -8v-4q0 -10 -28 -10h-964q-32 0 -32 10z" />
<glyph unicode="&#x2014;" horiz-adv-x="2328" d="M59 504v4q0 8 63 8h1929q56 0 56 -8v-4q0 -10 -56 -10h-1929q-63 0 -63 10z" />
<glyph unicode="&#x202f;" horiz-adv-x="273" />
<glyph unicode="&#x205f;" horiz-adv-x="341" />
<glyph unicode="&#x20ac;" horiz-adv-x="776" d="M59 371v4q0 10 9 10h127v240h-127q-9 0 -9 8v4q0 10 9 10h127v180q0 75 53.5 129t128.5 54q74 0 127 -54t53 -129v-14v-25q0 -8 -8 -8h-4q-8 0 -8 8v39q0 66 -47 113t-113 47t-113 -47t-47 -113v-180h127q8 0 8 -10v-4q0 -8 -8 -8h-127v-240h127q8 0 8 -10v-4q0 -9 -8 -9 h-127v-182q0 -66 47 -113t113 -47t113 47t47 113v47q0 9 8 9h4q8 0 8 -9v-47q0 -75 -53 -127.5t-127 -52.5q-75 0 -128.5 52.5t-53.5 127.5v182h-127q-3 0 -6 3t-3 6z" />
<glyph unicode="&#xe000;" horiz-adv-x="1013" d="M0 0v1014h1014v-1014h-1014z" />
</font>
</defs>
</svg>
