<?xml version="1.0" standalone="no"?>
<!DOCTYPE svg PUBLIC "-//W3C//DTD SVG 1.1//EN" "http://www.w3.org/Graphics/SVG/1.1/DTD/svg11.dtd" >
<svg xmlns="http://www.w3.org/2000/svg">
<metadata></metadata>
<defs>
<font id="blanch_capsregular" horiz-adv-x="643" >
<font-face units-per-em="2048" ascent="1434" descent="-614" />
<missing-glyph horiz-adv-x="294" />
<glyph horiz-adv-x="2048" />
<glyph horiz-adv-x="2048" />
<glyph unicode="&#xd;" horiz-adv-x="2048" />
<glyph unicode=" "  horiz-adv-x="294" />
<glyph unicode="&#x09;" horiz-adv-x="294" />
<glyph unicode="&#xa0;" horiz-adv-x="294" />
<glyph unicode="!" horiz-adv-x="301" d="M59 37q0 13 9.5 23t23.5 10h66q13 0 22.5 -9.5t9.5 -23.5v-135q0 -14 -9.5 -23.5t-22.5 -9.5h-66q-14 0 -23.5 9.5t-9.5 23.5v135zM59 231v748q0 13 9.5 23t23.5 10h66q13 0 22.5 -9.5t9.5 -23.5v-748q0 -13 -9 -22.5t-23 -9.5h-66q-14 0 -23.5 9.5t-9.5 22.5z" />
<glyph unicode="#" horiz-adv-x="1085" d="M39 276v66q0 13 10.5 23t22.5 10h213v262h-213q-12 0 -22.5 10t-10.5 23v63q0 13 10.5 23t22.5 10h213v213q0 13 10 23t22 10h66q13 0 23 -10t10 -23v-213h131v213q0 13 9.5 23t23.5 10h65q12 0 22.5 -10t10.5 -23v-213h213q12 0 22.5 -9.5t10.5 -21.5v-65 q0 -13 -10.5 -23t-22.5 -10h-213v-262h213q12 0 22.5 -10t10.5 -23v-66q0 -12 -10.5 -22t-22.5 -10h-213v-211q0 -13 -10.5 -23t-22.5 -10h-65q-14 0 -23.5 10t-9.5 23v211h-131v-211q0 -13 -10 -23t-23 -10h-66q-12 0 -22 10t-10 23v211h-213q-12 0 -22.5 10t-10.5 22z M416 375h131v262h-131v-262z" />
<glyph unicode="$" horiz-adv-x="641" d="M59 238v69q0 13 9.5 23t23.5 10h66q12 0 22 -10t10 -23v-69q0 -43 31 -74t74 -31t73.5 31t30.5 74q0 26 -4 34l-289 379q-35 47 -41 64t-6 67q0 79 48 142.5t122 85.5v102q0 14 9.5 23.5t23.5 9.5h66q13 0 22.5 -9.5t9.5 -23.5v-102q74 -22 122 -85.5t48 -142.5v-69 q0 -14 -9.5 -23.5t-22.5 -9.5h-66q-12 0 -22.5 10t-10.5 23v69q0 43 -30.5 74t-73.5 31t-74 -31t-31 -74q0 -24 5 -34l288 -379q35 -50 41 -66t6 -65q0 -81 -47.5 -143.5t-122.5 -84.5v-102q0 -14 -9.5 -23.5t-22.5 -9.5h-66q-14 0 -23.5 9.5t-9.5 23.5v102 q-75 22 -122.5 84.5t-47.5 143.5z" />
<glyph unicode="%" horiz-adv-x="1159" d="M59 778v2q2 97 71 165.5t167 68.5q97 0 165 -68.5t70 -165.5v-2q-2 -97 -70.5 -166t-164.5 -69q-98 0 -167 69t-71 166zM190 778q2 -43 33 -73.5t74 -30.5t73.5 30.5t30.5 73.5t-30.5 74t-73.5 31t-74 -31t-33 -74zM317 33v203q0 49 6.5 65t43.5 66l286 378q6 8 6 35v201 q0 13 9.5 23t23.5 10h66q14 0 23.5 -10t9.5 -23v-201q0 -50 -6.5 -66.5t-43.5 -64.5l-286 -381q-6 -6 -6 -32v-203q0 -12 -10 -22.5t-23 -10.5h-66q-12 0 -22.5 10.5t-10.5 22.5zM578 236v2q0 97 69 165t166 68t166.5 -68.5t69.5 -164.5v-2q0 -97 -69.5 -166.5t-166.5 -69.5 t-166 69.5t-69 166.5zM709 236q0 -43 30.5 -74t73.5 -31t74 31t31 74t-31 73.5t-74 30.5t-73.5 -30.5t-30.5 -73.5z" />
<glyph unicode="&#x26;" horiz-adv-x="759" d="M59 238v200q0 104 74 172q-74 68 -74 170q0 98 69.5 168t166.5 70h70q13 0 22.5 -10.5t9.5 -22.5v-67q0 -12 -9.5 -22.5t-22.5 -10.5h-70q-43 0 -74 -31t-31 -74t31 -73.5t74 -30.5h106v104q0 14 9.5 23.5t23.5 9.5h66q12 0 22 -10t10 -23v-104h105q13 0 23 -10.5 t10 -22.5v-65q0 -14 -10 -23.5t-23 -9.5h-105v-512q0 -13 -10 -23t-22 -10h-205q-97 0 -166.5 70t-69.5 168zM190 238q0 -44 31 -75.5t74 -31.5h106v414h-106q-43 0 -74 -32t-31 -75v-200z" />
<glyph unicode="'" horiz-adv-x="301" d="M59 713v399q0 14 9.5 23.5t23.5 9.5h66q13 0 22.5 -9.5t9.5 -23.5v-399q0 -14 -9.5 -23.5t-22.5 -9.5h-66q-14 0 -23.5 10t-9.5 23z" />
<glyph unicode="(" horiz-adv-x="438" d="M59 236v540q0 98 69.5 167t166.5 69q13 0 23 -10t10 -23v-66q0 -12 -10 -21t-23 -9q-43 0 -74 -31.5t-31 -75.5v-540q0 -44 31 -75.5t74 -31.5q13 0 23 -9.5t10 -23.5v-63q0 -13 -10 -23t-23 -10q-97 0 -166.5 69t-69.5 167z" />
<glyph unicode=")" horiz-adv-x="436" d="M59 33v63q0 14 9.5 23.5t23.5 9.5q43 0 74 31.5t31 75.5v540q0 44 -31 75.5t-74 31.5q-13 0 -23 9t-10 21v66q0 13 9.5 23t23.5 10q97 0 166.5 -69t69.5 -167v-540q0 -98 -69.5 -167t-166.5 -69q-14 0 -23.5 10t-9.5 23z" />
<glyph unicode="+" horiz-adv-x="569" d="M59 471v66q0 13 9.5 22.5t23.5 9.5h103v103q0 14 9.5 23.5t22.5 9.5h66q13 0 23 -9.5t10 -23.5v-103h102q14 0 23.5 -9.5t9.5 -22.5v-66q0 -13 -9.5 -23t-23.5 -10h-102v-102q0 -14 -10 -23.5t-23 -9.5h-66q-13 0 -22.5 9.5t-9.5 23.5v102h-103q-14 0 -23.5 10t-9.5 23z " />
<glyph unicode="," horiz-adv-x="301" d="M59 168q0 14 9.5 23.5t23.5 9.5h66q13 0 22.5 -9.5t9.5 -23.5v-399q0 -14 -9.5 -23.5t-22.5 -9.5h-66q-14 0 -23.5 10t-9.5 23v399z" />
<glyph unicode="-" horiz-adv-x="571" d="M59 471v66q0 12 10 22t23 10h336q13 0 23 -10t10 -22v-66q0 -13 -9.5 -23t-23.5 -10h-336q-14 0 -23.5 10t-9.5 23z" />
<glyph unicode="." horiz-adv-x="301" d="M59 33v135q0 14 9.5 23.5t23.5 9.5h66q13 0 22.5 -9.5t9.5 -23.5v-135q0 -14 -9.5 -23.5t-22.5 -9.5h-66q-14 0 -23.5 10t-9.5 23z" />
<glyph unicode="/" d="M59 33v203q0 49 6.5 65t43.5 66l286 378q6 8 6 35v201q0 13 9.5 23t23.5 10h66q12 0 22 -10t10 -23v-201q0 -51 -6 -67.5t-43 -63.5l-286 -381q-7 -7 -7 -32v-203q0 -12 -9.5 -22.5t-22.5 -10.5h-66q-13 0 -23 10.5t-10 22.5z" />
<glyph unicode="0" horiz-adv-x="641" d="M59 236v2v540q0 97 69 166.5t167 69.5q97 0 166 -68.5t69 -165.5v-542q0 -99 -68.5 -168.5t-166.5 -69.5q-97 0 -166.5 69.5t-69.5 166.5zM190 238q0 -44 31 -75.5t74 -31.5t73.5 31.5t30.5 75.5v301l-202 -271q-7 -7 -7 -30zM190 475l205 270q4 8 4 33q0 43 -30.5 74 t-73.5 31t-74 -31t-31 -74v-303z" />
<glyph unicode="1" horiz-adv-x="440" d="M59 915v66q0 13 9.5 23t23.5 10h172q27 0 46.5 -19.5t19.5 -46.5v-915q0 -12 -10.5 -22.5t-22.5 -10.5h-66q-13 0 -22.5 10.5t-9.5 22.5v850h-107q-14 0 -23.5 9.5t-9.5 22.5z" />
<glyph unicode="2" d="M59 33v200q0 49 6.5 65.5t43.5 66.5l286 378q6 8 6 35q0 43 -31 74t-75 31q-43 0 -74 -31t-31 -74v-71q0 -12 -9.5 -22.5t-22.5 -10.5h-66q-13 0 -23 10.5t-10 22.5v71q0 97 69.5 166.5t166.5 69.5q98 0 167.5 -69.5t69.5 -166.5q0 -51 -6 -67.5t-43 -63.5l-286 -381 q-7 -7 -7 -33v-102h310q13 0 22.5 -9.5t9.5 -23.5v-65q0 -12 -9.5 -22.5t-22.5 -10.5h-408q-13 0 -23 10.5t-10 22.5z" />
<glyph unicode="3" d="M59 238v69q0 13 9.5 23t23.5 10h66q13 0 22.5 -9.5t9.5 -23.5v-69q0 -44 31 -75.5t74 -31.5q44 0 75 31.5t31 75.5v100q0 43 -31 73.5t-75 30.5q-13 0 -23 10t-10 23v66q0 13 9.5 22.5t23.5 9.5q44 0 75 31.5t31 75.5v98q0 43 -31 74t-75 31q-43 0 -74 -31t-31 -74v-71 q0 -12 -9.5 -22.5t-22.5 -10.5h-66q-13 0 -23 10.5t-10 22.5v71q0 97 69.5 166.5t166.5 69.5q98 0 167.5 -69.5t69.5 -166.5v-98q0 -102 -73 -172q73 -70 73 -170v-100q0 -98 -69.5 -168t-167.5 -70q-97 0 -166.5 70t-69.5 168z" />
<glyph unicode="4" horiz-adv-x="780" d="M59 344v98q0 43 7 59.5t43 65.5l286 379q6 8 6 35q0 13 9.5 23t23.5 10h66q13 0 22.5 -9.5t9.5 -23.5q0 -49 -6 -65t-43 -66l-286 -379q-7 -9 -7 -29h211v105q0 13 9.5 23t23.5 10h66q13 0 22.5 -9.5t9.5 -23.5v-105h105q14 0 23.5 -9.5t9.5 -22.5v-66q0 -14 -10 -23.5 t-23 -9.5h-105v-278q0 -12 -9.5 -22.5t-22.5 -10.5h-66q-13 0 -23 10.5t-10 22.5v278h-309q-14 0 -23.5 9.5t-9.5 23.5z" />
<glyph unicode="5" d="M59 238v69q0 13 9.5 23t23.5 10h66q13 0 22.5 -9.5t9.5 -23.5v-69q0 -44 31.5 -75.5t75.5 -31.5q43 0 73.5 31.5t30.5 75.5v200q0 43 -30.5 74t-73.5 31h-205q-13 0 -23 10t-10 22v406q0 13 9.5 23t23.5 10h408q13 0 22.5 -9.5t9.5 -23.5v-66q0 -13 -9 -22.5t-23 -9.5 h-310v-209h107q97 0 166 -69t69 -167v-200q0 -98 -69 -168t-166 -70q-98 0 -168 70t-70 168z" />
<glyph unicode="6" d="M59 238v540q0 97 70 166.5t168 69.5q97 0 166 -69.5t69 -166.5q0 -14 -9.5 -23.5t-22.5 -9.5h-66q-14 0 -23.5 9.5t-9.5 23.5q0 43 -30.5 74t-73.5 31q-44 0 -75.5 -31t-31.5 -74v-129q52 25 107 25q97 0 166 -69t69 -167v-200q0 -98 -69 -168t-166 -70q-98 0 -168 70 t-70 168zM190 238q0 -44 31.5 -75.5t75.5 -31.5q43 0 73.5 31.5t30.5 75.5v200q0 43 -30.5 74t-73.5 31q-44 0 -75.5 -31t-31.5 -74v-200z" />
<glyph unicode="7" horiz-adv-x="641" d="M59 33v203q0 49 6 65t41 66l289 378q4 8 4 35v103h-307q-14 0 -23.5 9.5t-9.5 22.5v66q0 13 9.5 23t23.5 10h406q13 0 22.5 -9.5t9.5 -23.5v-66v-135q0 -51 -6 -67.5t-41 -63.5l-288 -381q-5 -8 -5 -32v-203q0 -12 -10 -22.5t-22 -10.5h-66q-13 0 -23 10.5t-10 22.5z" />
<glyph unicode="8" horiz-adv-x="641" d="M59 238v200q0 101 72 170q-72 72 -72 170v2q0 97 69.5 165.5t166.5 68.5t166 -68.5t69 -165.5v-2q0 -99 -71 -170q71 -68 71 -170v-200q0 -99 -68.5 -168.5t-166.5 -69.5t-167 70t-69 168zM190 238q0 -44 31 -75.5t74 -31.5t73.5 31.5t30.5 75.5v200q0 43 -30.5 74 t-73.5 31t-74 -31t-31 -74v-200zM190 778q0 -43 31 -73.5t74 -30.5t73.5 30.5t30.5 73.5t-30.5 74t-73.5 31t-74 -31t-31 -74z" />
<glyph unicode="9" horiz-adv-x="641" d="M59 238q0 13 9.5 22.5t23.5 9.5h66q14 0 23 -9t9 -23q0 -44 31 -75.5t74 -31.5t74.5 31.5t31.5 75.5v229q-59 -25 -106 -25q-97 0 -166.5 70t-69.5 168v98q0 97 69.5 166.5t166.5 69.5q98 0 167.5 -69.5t69.5 -166.5v-540q0 -98 -69.5 -168t-167.5 -70q-97 0 -166.5 70 t-69.5 168zM190 680q0 -44 31 -75.5t74 -31.5t74.5 31.5t31.5 75.5v98q0 43 -31.5 74t-74.5 31t-74 -31t-31 -74v-98z" />
<glyph unicode=":" horiz-adv-x="301" d="M59 33v135q0 14 9.5 23.5t23.5 9.5h66q13 0 22.5 -9.5t9.5 -23.5v-135q0 -14 -9.5 -23.5t-22.5 -9.5h-66q-14 0 -23.5 10t-9.5 23zM59 528v136q0 13 9.5 22.5t23.5 9.5h66q14 0 23 -9t9 -23v-136q0 -14 -9 -23t-23 -9h-66q-14 0 -23.5 9.5t-9.5 22.5z" />
<glyph unicode=";" horiz-adv-x="301" d="M59 168q0 14 9.5 23.5t23.5 9.5h66q13 0 22.5 -9.5t9.5 -23.5v-399q0 -14 -9.5 -23.5t-22.5 -9.5h-66q-14 0 -23.5 10t-9.5 23v399zM59 528v136q0 13 9.5 22.5t23.5 9.5h66q14 0 23 -9t9 -23v-136q0 -14 -9 -23t-23 -9h-66q-14 0 -23.5 9.5t-9.5 22.5z" />
<glyph unicode="=" horiz-adv-x="571" d="M59 342v66q0 12 10 22t23 10h336q13 0 23 -10t10 -22v-66q0 -14 -9.5 -23.5t-23.5 -9.5h-336q-14 0 -23.5 9.5t-9.5 23.5zM59 602v66q0 12 10 22t23 10h336q13 0 23 -10t10 -22v-66q0 -14 -9.5 -23.5t-23.5 -9.5h-336q-14 0 -23.5 9.5t-9.5 23.5z" />
<glyph unicode="?" horiz-adv-x="641" d="M59 43q0 13 9.5 23t23.5 10h66q13 0 22.5 -9.5t9.5 -23.5v-135q0 -14 -9.5 -23.5t-22.5 -9.5h-66q-14 0 -23.5 9.5t-9.5 23.5v135zM59 238q0 49 6.5 65t43.5 66l286 379q6 8 6 34q0 43 -31 74t-75 31q-43 0 -74 -31t-31 -74v-71q0 -12 -9.5 -22.5t-22.5 -10.5h-66 q-13 0 -23 10.5t-10 22.5v71q0 97 69.5 166.5t166.5 69.5q98 0 167.5 -69.5t69.5 -166.5q0 -51 -6 -67.5t-43 -63.5l-286 -381q-7 -9 -7 -32q0 -14 -9.5 -23.5t-22.5 -9.5h-66q-14 0 -23.5 9.5t-9.5 23.5zM477 774v2v-2z" />
<glyph unicode="@" horiz-adv-x="1236" d="M59 236v540q0 98 69.5 167t166.5 69h430q97 0 166.5 -69t69.5 -167v-325q0 -98 -69.5 -168t-166.5 -70h-78q-13 0 -23 10.5t-10 22.5v182h-208v-180v-2q0 -12 -10.5 -22.5t-22.5 -10.5h-66q-13 0 -23 10.5t-10 22.5v2v315q0 97 69 166.5t167 69.5t166.5 -69.5 t68.5 -166.5v-217q37 7 60.5 37t23.5 68v325q0 43 -30.5 74t-73.5 31h-430q-43 0 -74 -31t-31 -74v-540q0 -43 31 -74t74 -31h328q13 0 22.5 -10.5t9.5 -22.5v-65q0 -14 -9.5 -23.5t-22.5 -9.5h-328q-97 0 -166.5 69t-69.5 167zM406 559h208v4q0 43 -30.5 74t-73.5 31 t-73.5 -31t-30.5 -74v-4z" />
<glyph unicode="A" d="M59 33v743q0 97 70 166.5t168 69.5q97 0 166 -69.5t69 -166.5v-743q0 -14 -9.5 -23.5t-22.5 -9.5h-66q-14 0 -23.5 10t-9.5 23v407h-211v-407q0 -14 -9.5 -23.5t-22.5 -9.5h-66q-14 0 -23.5 10t-9.5 23zM190 571h211v205q0 43 -30.5 74t-73.5 31q-44 0 -75.5 -31 t-31.5 -74v-205z" />
<glyph unicode="B" d="M59 66v882q0 28 19 47t47 19h172q97 0 166 -70t69 -168v-98q0 -103 -73 -170q73 -67 73 -172v-98q0 -98 -69 -168t-166 -70h-172q-27 0 -46.5 19.5t-19.5 46.5zM190 133h107q43 0 73.5 31t30.5 74v98q0 44 -30.5 75t-73.5 31h-107v-309zM190 573h107q43 0 73.5 31 t30.5 74v98q0 44 -30.5 75.5t-73.5 31.5h-107v-310z" />
<glyph unicode="C" horiz-adv-x="620" d="M59 236v542q0 97 69 166.5t167 69.5q97 0 166 -69.5t69 -166.5v-69q0 -14 -9.5 -23.5t-22.5 -9.5h-66q-14 0 -23.5 10t-9.5 23v69q0 43 -30.5 74t-73.5 31t-74 -31t-31 -74v-542q0 -43 31 -74t74 -31t73.5 31t30.5 74v75q0 13 9.5 23t23.5 10h66q13 0 22.5 -9.5 t9.5 -23.5v-75q0 -97 -69 -166.5t-166 -69.5q-98 0 -167 69.5t-69 166.5z" />
<glyph unicode="D" d="M59 66v882q0 27 19.5 46.5t46.5 19.5h172q98 0 166.5 -69.5t68.5 -168.5v-538q0 -99 -68.5 -168.5t-166.5 -69.5h-172q-26 0 -46 20t-20 46zM190 133h107q43 0 73.5 31t30.5 74v538q0 44 -30.5 75.5t-73.5 31.5h-107v-750z" />
<glyph unicode="E" horiz-adv-x="512" d="M59 66v882q0 28 19 47t47 19h244q13 0 22.5 -9.5t9.5 -23.5v-66q0 -13 -9.5 -22.5t-22.5 -9.5h-179v-310h179q13 0 22.5 -9.5t9.5 -22.5v-66q0 -14 -9.5 -23.5t-22.5 -9.5h-179v-311h179q13 0 22.5 -9.5t9.5 -23.5v-65q0 -14 -9.5 -23.5t-22.5 -9.5h-244 q-27 0 -46.5 19.5t-19.5 46.5z" />
<glyph unicode="F" horiz-adv-x="512" d="M59 33v915q0 28 19 47t47 19h244q13 0 22.5 -9.5t9.5 -23.5v-66q0 -13 -9.5 -22.5t-22.5 -9.5h-179v-310h179q13 0 22.5 -9.5t9.5 -22.5v-66q0 -14 -9.5 -23.5t-22.5 -9.5h-179v-409q0 -14 -9.5 -23.5t-22.5 -9.5h-66q-14 0 -23.5 10t-9.5 23z" />
<glyph unicode="G" horiz-adv-x="641" d="M59 233v543q0 98 69.5 167t166.5 69t166 -69t69 -167v-69q0 -14 -9.5 -23.5t-22.5 -9.5h-66q-14 0 -23.5 10t-9.5 23v69q0 44 -30.5 74.5t-73.5 30.5t-74 -30.5t-31 -74.5v-543q0 -43 31 -73.5t74 -30.5t73.5 30.5t30.5 73.5v211h-71q-13 0 -23 9.5t-10 21.5v66 q0 13 9.5 22.5t23.5 9.5h170q14 0 23 -9.5t9 -22.5v-308q0 -97 -69 -165t-166 -68t-166.5 68.5t-69.5 164.5z" />
<glyph unicode="H" horiz-adv-x="641" d="M59 33v948q0 13 9.5 23t23.5 10h66q13 0 22.5 -9.5t9.5 -23.5v-408h209v408q0 13 10.5 23t22.5 10h66q13 0 22.5 -9.5t9.5 -23.5v-948q0 -14 -9.5 -23.5t-22.5 -9.5h-66q-12 0 -22.5 10t-10.5 23v409h-209v-409q0 -14 -9.5 -23.5t-22.5 -9.5h-66q-14 0 -23.5 10t-9.5 23z " />
<glyph unicode="I" horiz-adv-x="301" d="M59 33v948q0 13 9.5 23t23.5 10h66q12 0 22 -10t10 -23v-948q0 -14 -9.5 -23.5t-22.5 -9.5h-66q-14 0 -23.5 10t-9.5 23z" />
<glyph unicode="J" horiz-adv-x="641" d="M59 236v75q0 13 10.5 23t22.5 10h66q13 0 22.5 -9.5t9.5 -23.5v-75q0 -43 31 -74t74 -31q44 0 74 31t30 74v745q0 13 10.5 23t22.5 10h66q13 0 22.5 -9.5t9.5 -23.5v-745q0 -97 -68.5 -166.5t-166.5 -69.5q-97 0 -166.5 69.5t-69.5 166.5z" />
<glyph unicode="K" d="M59 33v409v131v408q0 13 9.5 23t23.5 10h66q13 0 22.5 -9.5t9.5 -23.5v-408h105q44 0 75 31.5t31 75.5v301q0 13 9.5 23t23.5 10h66q13 0 22.5 -9.5t9.5 -23.5v-301q0 -102 -73 -172q73 -70 73 -170v-305q0 -12 -9.5 -22.5t-22.5 -10.5h-66q-13 0 -23 10.5t-10 22.5v305 q0 43 -31 73.5t-75 30.5h-105v-409q0 -12 -9.5 -22.5t-22.5 -10.5h-66q-13 0 -23 10.5t-10 22.5z" />
<glyph unicode="L" horiz-adv-x="489" d="M59 66v915q0 13 9.5 23t23.5 10h66q12 0 22 -10t10 -23v-850h177q13 0 22.5 -9.5t9.5 -23.5v-65q0 -12 -9.5 -22.5t-22.5 -10.5h-242q-27 0 -46.5 19.5t-19.5 46.5z" />
<glyph unicode="M" horiz-adv-x="985" d="M59 33v745q0 97 70 166.5t168 69.5q99 0 170 -74q71 74 170 74q98 0 167.5 -69.5t69.5 -166.5v-745q0 -12 -9.5 -22.5t-22.5 -10.5h-66q-13 0 -23 10.5t-10 22.5v745q0 43 -31 74t-75 31q-43 0 -74 -31t-31 -74v-745q0 -12 -9.5 -22.5t-22.5 -10.5h-66q-13 0 -23 10.5 t-10 22.5v745q0 43 -30.5 74t-73.5 31q-44 0 -75.5 -31t-31.5 -74v-745q0 -12 -9.5 -22.5t-22.5 -10.5h-66q-12 0 -22.5 10.5t-10.5 22.5z" />
<glyph unicode="N" d="M59 33v745q0 97 70 166.5t168 69.5q97 0 166 -69.5t69 -166.5v-745q0 -12 -9.5 -22.5t-22.5 -10.5h-66q-13 0 -23 10.5t-10 22.5v745q0 43 -30.5 74t-73.5 31q-44 0 -75.5 -31t-31.5 -74v-745q0 -12 -9.5 -22.5t-22.5 -10.5h-66q-13 0 -23 10.5t-10 22.5z" />
<glyph unicode="O" d="M59 238v540q0 97 70 166.5t168 69.5q97 0 166 -69.5t69 -166.5v-540q0 -98 -69 -168t-166 -70q-98 0 -168 70t-70 168zM190 238q0 -44 31.5 -75.5t75.5 -31.5q43 0 73.5 31.5t30.5 75.5v540q0 43 -30.5 74t-73.5 31q-44 0 -75.5 -31t-31.5 -74v-540z" />
<glyph unicode="P" horiz-adv-x="600" d="M59 33v409v131v408q0 13 10.5 23t22.5 10h205q97 0 166 -69.5t69 -166.5v-98q0 -98 -69 -168t-166 -70h-107v-409q0 -12 -9.5 -22.5t-22.5 -10.5h-66q-12 0 -22.5 10.5t-10.5 22.5zM190 573h107q43 0 73.5 31.5t30.5 75.5v98q0 43 -30.5 74t-73.5 31h-107v-310z" />
<glyph unicode="Q" d="M59 238v540q0 98 69 167t167 69q97 0 166 -69t69 -167v-540q0 -79 -48 -142.5t-122 -85.5v-106q0 -14 -9.5 -23.5t-22.5 -9.5h-66q-14 0 -23.5 9.5t-9.5 23.5v106q-74 22 -122 85.5t-48 142.5zM190 238q0 -43 31 -74t74 -31t73.5 31t30.5 74v540q0 43 -30.5 74t-73.5 31 t-74 -31t-31 -74v-540z" />
<glyph unicode="R" horiz-adv-x="630" d="M49 33v915q0 28 19 47t47 19h170q98 0 166.5 -69.5t68.5 -166.5v-98q0 -104 -71 -172q71 -68 71 -170v-305q0 -12 -10 -22.5t-23 -10.5h-65q-13 0 -23 10.5t-10 22.5v305q0 43 -30.5 73.5t-73.5 30.5h-105v-409q0 -12 -10.5 -22.5t-22.5 -10.5h-65q-13 0 -23 10.5 t-10 22.5zM180 573h105q43 0 73.5 31.5t30.5 75.5v98q0 43 -30.5 74t-73.5 31h-105v-310z" />
<glyph unicode="S" horiz-adv-x="600" d="M39 236v69q0 13 9.5 23t23.5 10h65q13 0 23 -10t10 -23v-69q0 -43 30.5 -74t73.5 -31t74 31t31 74q0 26 -6 34l-285 377q-37 50 -43 66t-6 65q0 97 69 166.5t166 69.5t166.5 -69.5t69.5 -166.5v-69q0 -13 -10 -23t-23 -10h-65q-14 0 -23.5 10t-9.5 23v69q0 43 -31 74 t-74 31t-73.5 -31t-30.5 -74q0 -27 6 -35l285 -376q37 -50 43 -66t6 -65q0 -97 -69.5 -166.5t-166.5 -69.5t-166 69.5t-69 166.5z" />
<glyph unicode="T" horiz-adv-x="509" d="M39 915v66q0 13 9.5 23t23.5 10h315q13 0 23 -10t10 -23v-66q0 -13 -9.5 -22.5t-23.5 -9.5h-92v-850q0 -12 -10 -22.5t-23 -10.5h-65q-13 0 -23 10.5t-10 22.5v850h-92q-14 0 -23.5 9.5t-9.5 22.5z" />
<glyph unicode="U" d="M59 238v743q0 13 10.5 23t22.5 10h66q13 0 22.5 -9.5t9.5 -23.5v-743q0 -44 31.5 -75.5t75.5 -31.5q43 0 73.5 31.5t30.5 75.5v743q0 13 9.5 23t23.5 10h66q13 0 22.5 -9.5t9.5 -23.5v-743q0 -98 -69 -168t-166 -70q-98 0 -168 70t-70 168z" />
<glyph unicode="V" d="M59 342v637q0 13 9.5 23t23.5 10h66q13 0 22.5 -9.5t9.5 -23.5v-637q0 -15 7 -33l98 -176l100 176q4 20 4 33v637q0 13 10.5 23t22.5 10h66q13 0 22.5 -9.5t9.5 -23.5v-637q0 -72 -38 -131l-111 -195q-10 -16 -29 -16h-114q-19 0 -29 16l-111 195q-39 61 -39 131z" />
<glyph unicode="W" horiz-adv-x="983" d="M59 344v635q0 13 9.5 23t23.5 10h66q13 0 22.5 -9.5t9.5 -23.5v-635q0 -14 7 -35l98 -174l100 174q6 18 6 35v635q0 13 9.5 23t23.5 10h66q12 0 22 -10t10 -23v-635q0 -5 5 -35l100 -174l98 174q6 18 6 35v635q0 13 9.5 23t23.5 10h66q13 0 22.5 -9.5t9.5 -23.5v-635 q0 -75 -38 -131l-111 -197q-12 -16 -29 -16h-114q-17 0 -29 16l-84 152l-86 -152q-12 -16 -29 -16h-114q-19 0 -27 16l-113 197q-39 58 -39 131z" />
<glyph unicode="X" d="M59 33v127q0 75 41 131l119 213l-121 213q-39 58 -39 131v133q0 13 9.5 23t23.5 10h66q13 0 22.5 -9.5t9.5 -23.5v-133q0 -14 7 -35l98 -174l100 174q6 18 6 35v133q0 13 9.5 23t23.5 10h66q13 0 22.5 -9.5t9.5 -23.5v-133q0 -76 -40 -131l-119 -213l119 -213 q40 -55 40 -131v-127q0 -12 -9.5 -22.5t-22.5 -10.5h-66q-13 0 -23 10.5t-10 22.5v127q0 20 -6 35l-100 176l-98 -176q-7 -17 -7 -35v-127q0 -12 -9.5 -22.5t-22.5 -10.5h-66q-13 0 -23 10.5t-10 22.5z" />
<glyph unicode="Y" horiz-adv-x="602" d="M39 680v301q0 13 9.5 23t23.5 10h65q13 0 23 -10t10 -23v-301q0 -44 31 -75.5t75 -31.5q43 0 74 31.5t31 75.5v301q0 13 9.5 23t23.5 10h65q13 0 23 -10t10 -23v-301q0 -80 -47.5 -142.5t-122.5 -84.5v-420q0 -12 -10.5 -22.5t-22.5 -10.5h-65q-13 0 -23 10.5t-10 22.5 v420q-76 22 -124 84t-48 143z" />
<glyph unicode="Z" horiz-adv-x="620" d="M59 33v203q0 49 6 65t41 66l289 378q4 8 4 35v103h-307q-14 0 -23.5 9.5t-9.5 22.5v66q0 13 9.5 23t23.5 10h406q13 0 22.5 -9.5t9.5 -23.5v-66v-135q0 -51 -6 -67.5t-41 -63.5l-286 -381q-7 -7 -7 -32v-105h308q13 0 22.5 -9.5t9.5 -23.5v-65q0 -12 -9.5 -22.5 t-22.5 -10.5h-406q-13 0 -23 10.5t-10 22.5z" />
<glyph unicode="[" horiz-adv-x="509" d="M59 33v948q0 13 9.5 23t23.5 10h275q13 0 22.5 -9.5t9.5 -23.5v-66q0 -13 -9.5 -22.5t-22.5 -9.5h-177v-752h177q13 0 22.5 -9.5t9.5 -23.5v-65q0 -12 -9.5 -22.5t-22.5 -10.5h-275q-13 0 -23 10.5t-10 22.5z" />
<glyph unicode="\" d="M59 780v201q0 13 9.5 23t23.5 10h66q13 0 22.5 -9.5t9.5 -23.5v-201q0 -26 7 -35l286 -378q37 -50 43 -66t6 -65v-203q0 -12 -10 -22.5t-22 -10.5h-66q-13 0 -23 10.5t-10 22.5v203q0 26 -6 32l-286 381q-37 48 -43.5 64.5t-6.5 66.5z" />
<glyph unicode="]" horiz-adv-x="509" d="M59 33v65q0 14 9.5 23.5t23.5 9.5h178v752h-178q-14 0 -23.5 9.5t-9.5 22.5v66q0 13 9.5 23t23.5 10h277q12 0 22 -10t10 -23v-948q0 -12 -10 -22.5t-22 -10.5h-277q-13 0 -23 10.5t-10 22.5z" />
<glyph unicode="^" horiz-adv-x="612" d="M63 1162q-6 11 3 26l118 209q8 14 24.5 25t33.5 12q2 2 39 2t38 -2q17 -1 33.5 -12t24.5 -25l119 -209q9 -15 2.5 -26t-25.5 -11h-63q-19 0 -38 11t-28 26l-63 115l-64 -115q-9 -15 -28.5 -26t-36.5 -11h-64q-19 0 -25 11z" />
<glyph unicode="`" horiz-adv-x="452" d="M65 1425q6 11 25 11h64q18 0 37 -11t28 -26l119 -211q9 -15 2.5 -26t-25.5 -11h-63q-19 0 -38 11t-28 26l-118 211q-9 15 -3 26z" />
<glyph unicode="a" d="M59 33v743q0 97 70 166.5t168 69.5q97 0 166 -69.5t69 -166.5v-743q0 -14 -9.5 -23.5t-22.5 -9.5h-66q-14 0 -23.5 10t-9.5 23v407h-211v-407q0 -14 -9.5 -23.5t-22.5 -9.5h-66q-14 0 -23.5 10t-9.5 23zM190 571h211v205q0 43 -30.5 74t-73.5 31q-44 0 -75.5 -31 t-31.5 -74v-205z" />
<glyph unicode="b" d="M59 66v882q0 28 19 47t47 19h172q97 0 166 -70t69 -168v-98q0 -103 -73 -170q73 -67 73 -172v-98q0 -98 -69 -168t-166 -70h-172q-27 0 -46.5 19.5t-19.5 46.5zM190 133h107q43 0 73.5 31t30.5 74v98q0 44 -30.5 75t-73.5 31h-107v-309zM190 573h107q43 0 73.5 31 t30.5 74v98q0 44 -30.5 75.5t-73.5 31.5h-107v-310z" />
<glyph unicode="c" horiz-adv-x="620" d="M59 236v542q0 97 69 166.5t167 69.5q97 0 166 -69.5t69 -166.5v-69q0 -14 -9.5 -23.5t-22.5 -9.5h-66q-14 0 -23.5 10t-9.5 23v69q0 43 -30.5 74t-73.5 31t-74 -31t-31 -74v-542q0 -43 31 -74t74 -31t73.5 31t30.5 74v75q0 13 9.5 23t23.5 10h66q13 0 22.5 -9.5 t9.5 -23.5v-75q0 -97 -69 -166.5t-166 -69.5q-98 0 -167 69.5t-69 166.5z" />
<glyph unicode="d" d="M59 66v882q0 27 19.5 46.5t46.5 19.5h172q98 0 166.5 -69.5t68.5 -168.5v-538q0 -99 -68.5 -168.5t-166.5 -69.5h-172q-26 0 -46 20t-20 46zM190 133h107q43 0 73.5 31t30.5 74v538q0 44 -30.5 75.5t-73.5 31.5h-107v-750z" />
<glyph unicode="e" horiz-adv-x="512" d="M59 66v882q0 28 19 47t47 19h244q13 0 22.5 -9.5t9.5 -23.5v-66q0 -13 -9.5 -22.5t-22.5 -9.5h-179v-310h179q13 0 22.5 -9.5t9.5 -22.5v-66q0 -14 -9.5 -23.5t-22.5 -9.5h-179v-311h179q13 0 22.5 -9.5t9.5 -23.5v-65q0 -14 -9.5 -23.5t-22.5 -9.5h-244 q-27 0 -46.5 19.5t-19.5 46.5z" />
<glyph unicode="f" horiz-adv-x="512" d="M59 33v915q0 28 19 47t47 19h244q13 0 22.5 -9.5t9.5 -23.5v-66q0 -13 -9.5 -22.5t-22.5 -9.5h-179v-310h179q13 0 22.5 -9.5t9.5 -22.5v-66q0 -14 -9.5 -23.5t-22.5 -9.5h-179v-409q0 -14 -9.5 -23.5t-22.5 -9.5h-66q-14 0 -23.5 10t-9.5 23z" />
<glyph unicode="g" horiz-adv-x="641" d="M59 233v543q0 98 69.5 167t166.5 69t166 -69t69 -167v-69q0 -14 -9.5 -23.5t-22.5 -9.5h-66q-14 0 -23.5 10t-9.5 23v69q0 44 -30.5 74.5t-73.5 30.5t-74 -30.5t-31 -74.5v-543q0 -43 31 -73.5t74 -30.5t73.5 30.5t30.5 73.5v211h-71q-13 0 -23 9.5t-10 21.5v66 q0 13 9.5 22.5t23.5 9.5h170q14 0 23 -9.5t9 -22.5v-308q0 -97 -69 -165t-166 -68t-166.5 68.5t-69.5 164.5z" />
<glyph unicode="h" horiz-adv-x="641" d="M59 33v948q0 13 9.5 23t23.5 10h66q13 0 22.5 -9.5t9.5 -23.5v-408h209v408q0 13 10.5 23t22.5 10h66q13 0 22.5 -9.5t9.5 -23.5v-948q0 -14 -9.5 -23.5t-22.5 -9.5h-66q-12 0 -22.5 10t-10.5 23v409h-209v-409q0 -14 -9.5 -23.5t-22.5 -9.5h-66q-14 0 -23.5 10t-9.5 23z " />
<glyph unicode="i" horiz-adv-x="301" d="M59 33v948q0 13 9.5 23t23.5 10h66q12 0 22 -10t10 -23v-948q0 -14 -9.5 -23.5t-22.5 -9.5h-66q-14 0 -23.5 10t-9.5 23z" />
<glyph unicode="j" horiz-adv-x="641" d="M59 236v75q0 13 10.5 23t22.5 10h66q13 0 22.5 -9.5t9.5 -23.5v-75q0 -43 31 -74t74 -31q44 0 74 31t30 74v745q0 13 10.5 23t22.5 10h66q13 0 22.5 -9.5t9.5 -23.5v-745q0 -97 -68.5 -166.5t-166.5 -69.5q-97 0 -166.5 69.5t-69.5 166.5z" />
<glyph unicode="k" d="M59 33v409v131v408q0 13 9.5 23t23.5 10h66q13 0 22.5 -9.5t9.5 -23.5v-408h105q44 0 75 31.5t31 75.5v301q0 13 9.5 23t23.5 10h66q13 0 22.5 -9.5t9.5 -23.5v-301q0 -102 -73 -172q73 -70 73 -170v-305q0 -12 -9.5 -22.5t-22.5 -10.5h-66q-13 0 -23 10.5t-10 22.5v305 q0 43 -31 73.5t-75 30.5h-105v-409q0 -12 -9.5 -22.5t-22.5 -10.5h-66q-13 0 -23 10.5t-10 22.5z" />
<glyph unicode="l" horiz-adv-x="489" d="M59 66v915q0 13 9.5 23t23.5 10h66q12 0 22 -10t10 -23v-850h177q13 0 22.5 -9.5t9.5 -23.5v-65q0 -12 -9.5 -22.5t-22.5 -10.5h-242q-27 0 -46.5 19.5t-19.5 46.5z" />
<glyph unicode="m" horiz-adv-x="985" d="M59 33v745q0 97 70 166.5t168 69.5q99 0 170 -74q71 74 170 74q98 0 167.5 -69.5t69.5 -166.5v-745q0 -12 -9.5 -22.5t-22.5 -10.5h-66q-13 0 -23 10.5t-10 22.5v745q0 43 -31 74t-75 31q-43 0 -74 -31t-31 -74v-745q0 -12 -9.5 -22.5t-22.5 -10.5h-66q-13 0 -23 10.5 t-10 22.5v745q0 43 -30.5 74t-73.5 31q-44 0 -75.5 -31t-31.5 -74v-745q0 -12 -9.5 -22.5t-22.5 -10.5h-66q-12 0 -22.5 10.5t-10.5 22.5z" />
<glyph unicode="n" d="M59 33v745q0 97 70 166.5t168 69.5q97 0 166 -69.5t69 -166.5v-745q0 -12 -9.5 -22.5t-22.5 -10.5h-66q-13 0 -23 10.5t-10 22.5v745q0 43 -30.5 74t-73.5 31q-44 0 -75.5 -31t-31.5 -74v-745q0 -12 -9.5 -22.5t-22.5 -10.5h-66q-13 0 -23 10.5t-10 22.5z" />
<glyph unicode="o" d="M59 238v540q0 97 70 166.5t168 69.5q97 0 166 -69.5t69 -166.5v-540q0 -98 -69 -168t-166 -70q-98 0 -168 70t-70 168zM190 238q0 -44 31.5 -75.5t75.5 -31.5q43 0 73.5 31.5t30.5 75.5v540q0 43 -30.5 74t-73.5 31q-44 0 -75.5 -31t-31.5 -74v-540z" />
<glyph unicode="p" horiz-adv-x="600" d="M59 33v409v131v408q0 13 10.5 23t22.5 10h205q97 0 166 -69.5t69 -166.5v-98q0 -98 -69 -168t-166 -70h-107v-409q0 -12 -9.5 -22.5t-22.5 -10.5h-66q-12 0 -22.5 10.5t-10.5 22.5zM190 573h107q43 0 73.5 31.5t30.5 75.5v98q0 43 -30.5 74t-73.5 31h-107v-310z" />
<glyph unicode="q" d="M59 238v540q0 98 69 167t167 69q97 0 166 -69t69 -167v-540q0 -79 -48 -142.5t-122 -85.5v-106q0 -14 -9.5 -23.5t-22.5 -9.5h-66q-14 0 -23.5 9.5t-9.5 23.5v106q-74 22 -122 85.5t-48 142.5zM190 238q0 -43 31 -74t74 -31t73.5 31t30.5 74v540q0 43 -30.5 74t-73.5 31 t-74 -31t-31 -74v-540z" />
<glyph unicode="r" horiz-adv-x="630" d="M49 33v915q0 28 19 47t47 19h170q98 0 166.5 -69.5t68.5 -166.5v-98q0 -104 -71 -172q71 -68 71 -170v-305q0 -12 -10 -22.5t-23 -10.5h-65q-13 0 -23 10.5t-10 22.5v305q0 43 -30.5 73.5t-73.5 30.5h-105v-409q0 -12 -10.5 -22.5t-22.5 -10.5h-65q-13 0 -23 10.5 t-10 22.5zM180 573h105q43 0 73.5 31.5t30.5 75.5v98q0 43 -30.5 74t-73.5 31h-105v-310z" />
<glyph unicode="s" horiz-adv-x="600" d="M39 236v69q0 13 9.5 23t23.5 10h65q13 0 23 -10t10 -23v-69q0 -43 30.5 -74t73.5 -31t74 31t31 74q0 26 -6 34l-285 377q-37 50 -43 66t-6 65q0 97 69 166.5t166 69.5t166.5 -69.5t69.5 -166.5v-69q0 -13 -10 -23t-23 -10h-65q-14 0 -23.5 10t-9.5 23v69q0 43 -31 74 t-74 31t-73.5 -31t-30.5 -74q0 -27 6 -35l285 -376q37 -50 43 -66t6 -65q0 -97 -69.5 -166.5t-166.5 -69.5t-166 69.5t-69 166.5z" />
<glyph unicode="t" horiz-adv-x="509" d="M39 915v66q0 13 9.5 23t23.5 10h315q13 0 23 -10t10 -23v-66q0 -13 -9.5 -22.5t-23.5 -9.5h-92v-850q0 -12 -10 -22.5t-23 -10.5h-65q-13 0 -23 10.5t-10 22.5v850h-92q-14 0 -23.5 9.5t-9.5 22.5z" />
<glyph unicode="u" d="M59 238v743q0 13 10.5 23t22.5 10h66q13 0 22.5 -9.5t9.5 -23.5v-743q0 -44 31.5 -75.5t75.5 -31.5q43 0 73.5 31.5t30.5 75.5v743q0 13 9.5 23t23.5 10h66q13 0 22.5 -9.5t9.5 -23.5v-743q0 -98 -69 -168t-166 -70q-98 0 -168 70t-70 168z" />
<glyph unicode="v" d="M59 342v637q0 13 9.5 23t23.5 10h66q13 0 22.5 -9.5t9.5 -23.5v-637q0 -15 7 -33l98 -176l100 176q4 20 4 33v637q0 13 10.5 23t22.5 10h66q13 0 22.5 -9.5t9.5 -23.5v-637q0 -72 -38 -131l-111 -195q-10 -16 -29 -16h-114q-19 0 -29 16l-111 195q-39 61 -39 131z" />
<glyph unicode="w" horiz-adv-x="983" d="M59 344v635q0 13 9.5 23t23.5 10h66q13 0 22.5 -9.5t9.5 -23.5v-635q0 -14 7 -35l98 -174l100 174q6 18 6 35v635q0 13 9.5 23t23.5 10h66q12 0 22 -10t10 -23v-635q0 -5 5 -35l100 -174l98 174q6 18 6 35v635q0 13 9.5 23t23.5 10h66q13 0 22.5 -9.5t9.5 -23.5v-635 q0 -75 -38 -131l-111 -197q-12 -16 -29 -16h-114q-17 0 -29 16l-84 152l-86 -152q-12 -16 -29 -16h-114q-19 0 -27 16l-113 197q-39 58 -39 131z" />
<glyph unicode="x" d="M59 33v127q0 75 41 131l119 213l-121 213q-39 58 -39 131v133q0 13 9.5 23t23.5 10h66q13 0 22.5 -9.5t9.5 -23.5v-133q0 -14 7 -35l98 -174l100 174q6 18 6 35v133q0 13 9.5 23t23.5 10h66q13 0 22.5 -9.5t9.5 -23.5v-133q0 -76 -40 -131l-119 -213l119 -213 q40 -55 40 -131v-127q0 -12 -9.5 -22.5t-22.5 -10.5h-66q-13 0 -23 10.5t-10 22.5v127q0 20 -6 35l-100 176l-98 -176q-7 -17 -7 -35v-127q0 -12 -9.5 -22.5t-22.5 -10.5h-66q-13 0 -23 10.5t-10 22.5z" />
<glyph unicode="y" horiz-adv-x="602" d="M39 680v301q0 13 9.5 23t23.5 10h65q13 0 23 -10t10 -23v-301q0 -44 31 -75.5t75 -31.5q43 0 74 31.5t31 75.5v301q0 13 9.5 23t23.5 10h65q13 0 23 -10t10 -23v-301q0 -80 -47.5 -142.5t-122.5 -84.5v-420q0 -12 -10.5 -22.5t-22.5 -10.5h-65q-13 0 -23 10.5t-10 22.5 v420q-76 22 -124 84t-48 143z" />
<glyph unicode="z" horiz-adv-x="620" d="M59 33v203q0 49 6 65t41 66l289 378q4 8 4 35v103h-307q-14 0 -23.5 9.5t-9.5 22.5v66q0 13 9.5 23t23.5 10h406q13 0 22.5 -9.5t9.5 -23.5v-66v-135q0 -51 -6 -67.5t-41 -63.5l-286 -381q-7 -7 -7 -32v-105h308q13 0 22.5 -9.5t9.5 -23.5v-65q0 -12 -9.5 -22.5 t-22.5 -10.5h-406q-13 0 -23 10.5t-10 22.5z" />
<glyph unicode="&#xa1;" horiz-adv-x="301" d="M59 -90v747q0 13 9.5 23t23.5 10h66q13 0 22.5 -9.5t9.5 -23.5v-747q0 -14 -9.5 -23.5t-22.5 -9.5h-66q-14 0 -23.5 9.5t-9.5 23.5zM59 852v135q0 13 9.5 23t23.5 10h66q13 0 22.5 -9.5t9.5 -23.5v-135q0 -14 -9.5 -23.5t-22.5 -9.5h-66q-14 0 -23.5 9.5t-9.5 23.5z" />
<glyph unicode="&#xa8;" horiz-adv-x="509" d="M59 1182v135q0 12 10 22.5t23 10.5h66q13 0 22.5 -10.5t9.5 -22.5v-135q0 -14 -9.5 -23.5t-22.5 -9.5h-66q-14 0 -23.5 9.5t-9.5 23.5zM270 1182v135q0 12 10 22.5t23 10.5h64q13 0 22.5 -10.5t9.5 -22.5v-135q0 -14 -9.5 -23.5t-22.5 -9.5h-64q-13 0 -23 9.5t-10 23.5z " />
<glyph unicode="&#xad;" horiz-adv-x="571" d="M59 471v66q0 12 10 22t23 10h336q13 0 23 -10t10 -22v-66q0 -13 -9.5 -23t-23.5 -10h-336q-14 0 -23.5 10t-9.5 23z" />
<glyph unicode="&#xaf;" horiz-adv-x="1705" />
<glyph unicode="&#xb4;" horiz-adv-x="450" d="M63 1162q-6 11 3 26l118 209q7 15 26.5 26t37.5 11h63q19 0 25.5 -11t-2.5 -26l-119 -209q-7 -15 -26.5 -26t-36.5 -11h-64q-19 0 -25 11z" />
<glyph unicode="&#xb7;" horiz-adv-x="1705" />
<glyph unicode="&#xb8;" horiz-adv-x="1705" />
<glyph unicode="&#xbf;" horiz-adv-x="641" d="M59 111q0 49 6.5 65t43.5 66l286 379q6 8 6 34q0 13 9.5 23t23.5 10h66q13 0 22.5 -9.5t9.5 -23.5q0 -51 -6 -67.5t-43 -63.5l-286 -379q-7 -9 -7 -34q0 -43 31 -74t74 -31q44 0 75 31t31 74v69q0 14 9.5 23.5t23.5 9.5h66q13 0 22.5 -9.5t9.5 -23.5v-69 q0 -98 -69.5 -167t-167.5 -69q-97 0 -166.5 69t-69.5 167zM115 115v2v-2zM401 850v135q0 13 9.5 23t23.5 10h66q13 0 22.5 -9.5t9.5 -23.5v-135q0 -14 -9.5 -23.5t-22.5 -9.5h-66q-14 0 -23.5 9.5t-9.5 23.5z" />
<glyph unicode="&#xc0;" d="M59 33v743q0 98 69.5 167t166.5 69q98 0 167.5 -69t69.5 -167v-743q0 -14 -9.5 -23.5t-22.5 -9.5h-66q-14 0 -23.5 10t-9.5 23v409h-211v-409q0 -14 -9.5 -23.5t-22.5 -9.5h-66q-14 0 -23.5 10t-9.5 23zM79 1425q6 11 25 11h64q18 0 37 -11t28 -26l119 -211q9 -15 3 -26 t-25 -11h-64q-18 0 -37 11t-28 26l-119 211q-9 15 -3 26zM190 573h211v203q0 43 -31 74t-75 31q-43 0 -74 -31t-31 -74v-203z" />
<glyph unicode="&#xc1;" d="M59 33v743q0 98 70 167t168 69q97 0 166 -69t69 -167v-743q0 -14 -9.5 -23.5t-22.5 -9.5h-66q-14 0 -23.5 10t-9.5 23v409h-211v-409q0 -14 -9.5 -23.5t-22.5 -9.5h-66q-14 0 -23.5 10t-9.5 23zM190 573h211v203q0 43 -30.5 74t-73.5 31q-44 0 -75.5 -31t-31.5 -74v-203z M228.5 1162q-6.5 11 2.5 26l119 209q7 15 26.5 26t37.5 11h63q19 0 25.5 -11t-2.5 -26l-119 -209q-7 -15 -26.5 -26t-37.5 -11h-63q-19 0 -25.5 11z" />
<glyph unicode="&#xc2;" d="M59 33v743q0 98 70 167t168 69q97 0 166 -69t69 -167v-743q0 -14 -9.5 -23.5t-22.5 -9.5h-66q-14 0 -23.5 10t-9.5 23v409h-211v-409q0 -14 -9.5 -23.5t-22.5 -9.5h-66q-14 0 -23.5 10t-9.5 23zM77 1162q-6 11 3 26l119 209q8 14 24 25t33 12q2 2 39 2t39 -2 q17 -1 33 -12t24 -25l119 -209q9 -15 2.5 -26t-25.5 -11h-63q-19 0 -38 11t-28 26l-63 115l-64 -115q-9 -15 -28.5 -26t-36.5 -11h-64q-19 0 -25 11zM190 573h211v203q0 43 -30.5 74t-73.5 31q-44 0 -75.5 -31t-31.5 -74v-203z" />
<glyph unicode="&#xc3;" horiz-adv-x="1705" />
<glyph unicode="&#xc4;" d="M59 33v743q0 98 70 167t168 69q97 0 166 -69t69 -167v-743q0 -14 -9.5 -23.5t-22.5 -9.5h-66q-14 0 -23.5 10t-9.5 23v409h-211v-409q0 -14 -9.5 -23.5t-22.5 -9.5h-66q-14 0 -23.5 10t-9.5 23zM125 1182v135q0 12 10 22.5t23 10.5h65q13 0 23 -10.5t10 -22.5v-135 q0 -14 -10 -23.5t-23 -9.5h-65q-14 0 -23.5 9.5t-9.5 23.5zM190 573h211v203q0 43 -30.5 74t-73.5 31q-44 0 -75.5 -31t-31.5 -74v-203zM336 1182v135q0 12 10 22.5t23 10.5h63q13 0 23 -10.5t10 -22.5v-135q0 -14 -9.5 -23.5t-23.5 -9.5h-63q-13 0 -23 9.5t-10 23.5z" />
<glyph unicode="&#xc5;" horiz-adv-x="1705" />
<glyph unicode="&#xc6;" horiz-adv-x="1705" />
<glyph unicode="&#xc7;" horiz-adv-x="641" d="M59 236v544q0 98 69.5 167t166.5 69q98 0 167.5 -69t69.5 -167v-69q0 -13 -10 -23t-22 -10h-66q-14 0 -23.5 10t-9.5 23v69q0 43 -31 74t-75 31q-43 0 -74 -31t-31 -74v-544q0 -43 31 -74t74 -31q44 0 75 31t31 74v75q0 13 9.5 23t23.5 10h66q12 0 22 -10t10 -23v-75 q0 -79 -49 -142.5t-123 -85.5v-102q0 -14 -9.5 -23.5t-22.5 -9.5h-66q-14 0 -23.5 9.5t-9.5 23.5v102q-74 22 -122 85.5t-48 142.5z" />
<glyph unicode="&#xc8;" horiz-adv-x="512" d="M13.5 1425q6.5 11 25.5 11h63q19 0 38 -11t28 -26l119 -211q9 -15 2.5 -26t-25.5 -11h-63q-19 0 -38 11t-28 26l-119 211q-9 15 -2.5 26zM59 66v882q0 28 19 47t47 19h244q13 0 22.5 -9.5t9.5 -23.5v-66q0 -13 -9.5 -22.5t-22.5 -9.5h-179v-310h179q13 0 22.5 -9.5 t9.5 -22.5v-66q0 -14 -9.5 -23.5t-22.5 -9.5h-179v-311h179q13 0 22.5 -9.5t9.5 -23.5v-65q0 -14 -9.5 -23.5t-22.5 -9.5h-244q-27 0 -46.5 19.5t-19.5 46.5z" />
<glyph unicode="&#xc9;" horiz-adv-x="550" d="M59 66v882q0 28 19 47t47 19h244q13 0 22.5 -9.5t9.5 -23.5v-66q0 -13 -9.5 -22.5t-22.5 -9.5h-179v-310h179q13 0 22.5 -9.5t9.5 -22.5v-66q0 -14 -9.5 -23.5t-22.5 -9.5h-179v-311h179q13 0 22.5 -9.5t9.5 -23.5v-65q0 -14 -9.5 -23.5t-22.5 -9.5h-244 q-27 0 -46.5 19.5t-19.5 46.5zM163 1162q-6 11 3 26l119 209q7 15 26.5 26t36.5 11h64q19 0 25 -11t-3 -26l-119 -209q-7 -15 -26.5 -26t-36.5 -11h-64q-19 0 -25 11z" />
<glyph unicode="&#xca;" horiz-adv-x="512" d="M13.5 1162q-6.5 11 2.5 26l119 209q8 14 24.5 25t33.5 12q1 2 38 2t39 -2q17 -1 33.5 -12t24.5 -25l118 -209q9 -15 3 -26t-25 -11h-64q-18 0 -37 11t-28 26l-64 115l-63 -115q-9 -15 -29 -26t-37 -11h-63q-19 0 -25.5 11zM61 66v882q0 28 19 47t47 19h244 q13 0 22.5 -9.5t9.5 -23.5v-66q0 -13 -9.5 -22.5t-22.5 -9.5h-178v-310h178q13 0 22.5 -9.5t9.5 -22.5v-66q0 -14 -9.5 -23.5t-22.5 -9.5h-178v-311h178q13 0 22.5 -9.5t9.5 -23.5v-65q0 -14 -9.5 -23.5t-22.5 -9.5h-244q-27 0 -46.5 19.5t-19.5 46.5z" />
<glyph unicode="&#xcb;" horiz-adv-x="512" d="M59 66v882q0 28 19 47t47 19h244q13 0 22.5 -9.5t9.5 -23.5v-66q0 -13 -9.5 -22.5t-22.5 -9.5h-179v-310h179q13 0 22.5 -9.5t9.5 -22.5v-66q0 -14 -9.5 -23.5t-22.5 -9.5h-179v-311h179q13 0 22.5 -9.5t9.5 -23.5v-65q0 -14 -9.5 -23.5t-22.5 -9.5h-244 q-27 0 -46.5 19.5t-19.5 46.5zM59 1182v135q0 12 10 22.5t23 10.5h66q13 0 22.5 -10.5t9.5 -22.5v-135q0 -14 -9.5 -23.5t-22.5 -9.5h-66q-14 0 -23.5 9.5t-9.5 23.5zM270 1182v135q0 12 10 22.5t23 10.5h64q13 0 22.5 -10.5t9.5 -22.5v-135q0 -14 -9.5 -23.5t-22.5 -9.5 h-64q-13 0 -23 9.5t-10 23.5z" />
<glyph unicode="&#xcc;" horiz-adv-x="301" d="M-88.5 1425q6.5 11 25.5 11h63q19 0 38 -11t28 -26l118 -211q9 -15 3 -26t-25 -11h-64q-18 0 -37 11t-28 26l-119 211q-9 15 -2.5 26zM63 33v948q0 13 9.5 23t23.5 10h66q12 0 22.5 -10t10.5 -23v-948q0 -13 -9.5 -23t-23.5 -10h-66q-14 0 -23.5 10t-9.5 23z" />
<glyph unicode="&#xcd;" horiz-adv-x="301" d="M58.5 1162q-6.5 11 2.5 26l119 209q7 15 26.5 26t37.5 11h63q19 0 25.5 -11t-2.5 -26l-119 -209q-7 -15 -26.5 -26t-37.5 -11h-63q-19 0 -25.5 11zM61 33v948q0 13 9.5 23t23.5 10h66q12 0 22.5 -10t10.5 -23v-948q0 -13 -9.5 -23t-23.5 -10h-66q-14 0 -23.5 10t-9.5 23z " />
<glyph unicode="&#xce;" horiz-adv-x="301" d="M-93 1162q-6 11 3 26l119 209q8 14 24 25t33 12q2 2 39 2t39 -2q17 -1 33 -12t24 -25l119 -209q9 -15 2.5 -26t-25.5 -11h-63q-19 0 -38 11t-28 26l-63 115l-64 -115q-9 -15 -28.5 -26t-36.5 -11h-64q-19 0 -25 11zM61 33v948q0 13 9.5 23t23.5 10h66q12 0 22.5 -10 t10.5 -23v-948q0 -13 -9.5 -23t-23.5 -10h-66q-14 0 -23.5 10t-9.5 23z" />
<glyph unicode="&#xcf;" horiz-adv-x="301" d="M-45 1182v135q0 12 10 22.5t23 10.5h65q13 0 23 -10.5t10 -22.5v-135q0 -14 -10 -23.5t-23 -9.5h-65q-14 0 -23.5 9.5t-9.5 23.5zM59 33v948q0 13 9.5 23t23.5 10h66q12 0 22 -10t10 -23v-948q0 -14 -9.5 -23.5t-22.5 -9.5h-66q-14 0 -23.5 10t-9.5 23zM166 1182v135 q0 12 10 22.5t23 10.5h63q13 0 23 -10.5t10 -22.5v-135q0 -14 -9.5 -23.5t-23.5 -9.5h-63q-13 0 -23 9.5t-10 23.5z" />
<glyph unicode="&#xd1;" horiz-adv-x="641" d="M59 33v745q0 97 70 166.5t168 69.5q97 0 166 -69.5t69 -166.5v-745q0 -12 -9.5 -22.5t-22.5 -10.5h-66q-13 0 -23 10.5t-10 22.5v745q0 43 -30.5 74t-73.5 31q-44 0 -75.5 -31t-31.5 -74v-745q0 -12 -9.5 -22.5t-22.5 -10.5h-66q-13 0 -23 10.5t-10 22.5zM125 1182v65 q0 13 9.5 23t23.5 10h276q14 0 23.5 -10t9.5 -23v-65q0 -14 -9.5 -23.5t-23.5 -9.5h-276q-14 0 -23.5 9.5t-9.5 23.5z" />
<glyph unicode="&#xd2;" d="M59 238v540q0 97 70 166.5t168 69.5q97 0 166 -69.5t69 -166.5v-540q0 -98 -69 -168t-166 -70q-98 0 -168 70t-70 168zM79 1425q6 11 25 11h64q18 0 37 -11t28 -26l119 -211q9 -15 3 -26t-25 -11h-64q-18 0 -37 11t-28 26l-119 211q-9 15 -3 26zM190 238 q0 -44 31.5 -75.5t75.5 -31.5q43 0 73.5 31.5t30.5 75.5v540q0 43 -30.5 74t-73.5 31q-44 0 -75.5 -31t-31.5 -74v-540z" />
<glyph unicode="&#xd3;" d="M59 238v540q0 97 70 166.5t168 69.5q97 0 166 -69.5t69 -166.5v-540q0 -98 -69 -168t-166 -70q-98 0 -168 70t-70 168zM190 238q0 -44 31.5 -75.5t75.5 -31.5q43 0 73.5 31.5t30.5 75.5v540q0 43 -30.5 74t-73.5 31q-44 0 -75.5 -31t-31.5 -74v-540zM237 1162q-6 11 3 26 l118 209q7 15 26.5 26t37.5 11h63q19 0 25.5 -11t-2.5 -26l-119 -209q-7 -15 -26.5 -26t-36.5 -11h-64q-19 0 -25 11z" />
<glyph unicode="&#xd4;" horiz-adv-x="641" d="M59 238v540q0 97 70 166.5t168 69.5q97 0 166 -69.5t69 -166.5v-540q0 -98 -69 -168t-166 -70q-98 0 -168 70t-70 168zM77 1162q-6 11 3 26l119 209q8 14 24 25t33 12q2 2 39 2t39 -2q17 -1 33 -12t24 -25l119 -209q9 -15 2.5 -26t-25.5 -11h-63q-19 0 -38 11t-28 26 l-63 115l-64 -115q-9 -15 -28.5 -26t-36.5 -11h-64q-19 0 -25 11zM190 238q0 -44 31.5 -75.5t75.5 -31.5q43 0 73.5 31.5t30.5 75.5v540q0 43 -30.5 74t-73.5 31q-44 0 -75.5 -31t-31.5 -74v-540z" />
<glyph unicode="&#xd5;" horiz-adv-x="1705" />
<glyph unicode="&#xd6;" d="M59 238v540q0 97 70 166.5t168 69.5q97 0 166 -69.5t69 -166.5v-540q0 -98 -69 -168t-166 -70q-98 0 -168 70t-70 168zM125 1182v135q0 12 10 22.5t23 10.5h65q13 0 23 -10.5t10 -22.5v-135q0 -14 -10 -23.5t-23 -9.5h-65q-14 0 -23.5 9.5t-9.5 23.5zM190 238 q0 -44 31.5 -75.5t75.5 -31.5q43 0 73.5 31.5t30.5 75.5v540q0 43 -30.5 74t-73.5 31q-44 0 -75.5 -31t-31.5 -74v-540zM336 1182v135q0 12 10 22.5t23 10.5h63q13 0 23 -10.5t10 -22.5v-135q0 -14 -9.5 -23.5t-23.5 -9.5h-63q-13 0 -23 9.5t-10 23.5z" />
<glyph unicode="&#xd8;" horiz-adv-x="1705" />
<glyph unicode="&#xd9;" d="M59 238v743q0 13 10.5 23t22.5 10h66q13 0 22.5 -9.5t9.5 -23.5v-743q0 -44 31.5 -75.5t75.5 -31.5q43 0 73.5 31.5t30.5 75.5v743q0 13 9.5 23t23.5 10h66q13 0 22.5 -9.5t9.5 -23.5v-743q0 -98 -69 -168t-166 -70q-98 0 -168 70t-70 168zM79 1425q6 11 25 11h64 q18 0 37 -11t28 -26l119 -211q9 -15 3 -26t-25 -11h-64q-18 0 -37 11t-28 26l-119 211q-9 15 -3 26z" />
<glyph unicode="&#xda;" d="M59 238v743q0 13 10.5 23t22.5 10h66q13 0 22.5 -9.5t9.5 -23.5v-743q0 -44 31.5 -75.5t75.5 -31.5q43 0 73.5 31.5t30.5 75.5v743q0 13 9.5 23t23.5 10h66q13 0 22.5 -9.5t9.5 -23.5v-743q0 -98 -69 -168t-166 -70q-98 0 -168 70t-70 168zM226.5 1162q-6.5 11 2.5 26 l119 209q7 15 26.5 26t37.5 11h63q19 0 25.5 -11t-2.5 -26l-119 -209q-7 -15 -26.5 -26t-37.5 -11h-63q-19 0 -25.5 11z" />
<glyph unicode="&#xdb;" d="M59 238v743q0 13 10.5 23t22.5 10h66q13 0 22.5 -9.5t9.5 -23.5v-743q0 -44 31.5 -75.5t75.5 -31.5q43 0 73.5 31.5t30.5 75.5v743q0 13 9.5 23t23.5 10h66q13 0 22.5 -9.5t9.5 -23.5v-743q0 -98 -69 -168t-166 -70q-98 0 -168 70t-70 168zM77 1162q-6 11 3 26l119 209 q8 14 24 25t33 12q2 2 39 2t39 -2q17 -1 33 -12t24 -25l119 -209q9 -15 2.5 -26t-25.5 -11h-63q-19 0 -38 11t-28 26l-63 115l-64 -115q-9 -15 -28.5 -26t-36.5 -11h-64q-19 0 -25 11z" />
<glyph unicode="&#xdc;" d="M59 238v743q0 13 10.5 23t22.5 10h66q13 0 22.5 -9.5t9.5 -23.5v-743q0 -44 31.5 -75.5t75.5 -31.5q43 0 73.5 31.5t30.5 75.5v743q0 13 9.5 23t23.5 10h66q13 0 22.5 -9.5t9.5 -23.5v-743q0 -98 -69 -168t-166 -70q-98 0 -168 70t-70 168zM125 1182v135q0 12 10 22.5 t23 10.5h65q13 0 23 -10.5t10 -22.5v-135q0 -14 -10 -23.5t-23 -9.5h-65q-14 0 -23.5 9.5t-9.5 23.5zM336 1182v135q0 12 10 22.5t23 10.5h63q13 0 23 -10.5t10 -22.5v-135q0 -14 -9.5 -23.5t-23.5 -9.5h-63q-13 0 -23 9.5t-10 23.5z" />
<glyph unicode="&#xdd;" horiz-adv-x="1705" />
<glyph unicode="&#xe0;" d="M59 33v743q0 98 69.5 167t166.5 69q98 0 167.5 -69t69.5 -167v-743q0 -14 -9.5 -23.5t-22.5 -9.5h-66q-14 0 -23.5 10t-9.5 23v409h-211v-409q0 -14 -9.5 -23.5t-22.5 -9.5h-66q-14 0 -23.5 10t-9.5 23zM79 1425q6 11 25 11h64q18 0 37 -11t28 -26l119 -211q9 -15 3 -26 t-25 -11h-64q-18 0 -37 11t-28 26l-119 211q-9 15 -3 26zM190 573h211v203q0 43 -31 74t-75 31q-43 0 -74 -31t-31 -74v-203z" />
<glyph unicode="&#xe1;" d="M59 33v743q0 98 70 167t168 69q97 0 166 -69t69 -167v-743q0 -14 -9.5 -23.5t-22.5 -9.5h-66q-14 0 -23.5 10t-9.5 23v409h-211v-409q0 -14 -9.5 -23.5t-22.5 -9.5h-66q-14 0 -23.5 10t-9.5 23zM190 573h211v203q0 43 -30.5 74t-73.5 31q-44 0 -75.5 -31t-31.5 -74v-203z M228.5 1162q-6.5 11 2.5 26l119 209q7 15 26.5 26t37.5 11h63q19 0 25.5 -11t-2.5 -26l-119 -209q-7 -15 -26.5 -26t-37.5 -11h-63q-19 0 -25.5 11z" />
<glyph unicode="&#xe2;" d="M59 33v743q0 98 70 167t168 69q97 0 166 -69t69 -167v-743q0 -14 -9.5 -23.5t-22.5 -9.5h-66q-14 0 -23.5 10t-9.5 23v409h-211v-409q0 -14 -9.5 -23.5t-22.5 -9.5h-66q-14 0 -23.5 10t-9.5 23zM77 1162q-6 11 3 26l119 209q8 14 24 25t33 12q2 2 39 2t39 -2 q17 -1 33 -12t24 -25l119 -209q9 -15 2.5 -26t-25.5 -11h-63q-19 0 -38 11t-28 26l-63 115l-64 -115q-9 -15 -28.5 -26t-36.5 -11h-64q-19 0 -25 11zM190 573h211v203q0 43 -30.5 74t-73.5 31q-44 0 -75.5 -31t-31.5 -74v-203z" />
<glyph unicode="&#xe4;" d="M59 33v743q0 98 70 167t168 69q97 0 166 -69t69 -167v-743q0 -14 -9.5 -23.5t-22.5 -9.5h-66q-14 0 -23.5 10t-9.5 23v409h-211v-409q0 -14 -9.5 -23.5t-22.5 -9.5h-66q-14 0 -23.5 10t-9.5 23zM125 1182v135q0 12 10 22.5t23 10.5h65q13 0 23 -10.5t10 -22.5v-135 q0 -14 -10 -23.5t-23 -9.5h-65q-14 0 -23.5 9.5t-9.5 23.5zM190 573h211v203q0 43 -30.5 74t-73.5 31q-44 0 -75.5 -31t-31.5 -74v-203zM336 1182v135q0 12 10 22.5t23 10.5h63q13 0 23 -10.5t10 -22.5v-135q0 -14 -9.5 -23.5t-23.5 -9.5h-63q-13 0 -23 9.5t-10 23.5z" />
<glyph unicode="&#xe7;" horiz-adv-x="641" d="M59 236v544q0 98 69.5 167t166.5 69q98 0 167.5 -69t69.5 -167v-69q0 -13 -10 -23t-22 -10h-66q-14 0 -23.5 10t-9.5 23v69q0 43 -31 74t-75 31q-43 0 -74 -31t-31 -74v-544q0 -43 31 -74t74 -31q44 0 75 31t31 74v75q0 13 9.5 23t23.5 10h66q12 0 22 -10t10 -23v-75 q0 -79 -49 -142.5t-123 -85.5v-102q0 -14 -9.5 -23.5t-22.5 -9.5h-66q-14 0 -23.5 9.5t-9.5 23.5v102q-74 22 -122 85.5t-48 142.5z" />
<glyph unicode="&#xe8;" horiz-adv-x="512" d="M13.5 1425q6.5 11 25.5 11h63q19 0 38 -11t28 -26l119 -211q9 -15 2.5 -26t-25.5 -11h-63q-19 0 -38 11t-28 26l-119 211q-9 15 -2.5 26zM59 66v882q0 28 19 47t47 19h244q13 0 22.5 -9.5t9.5 -23.5v-66q0 -13 -9.5 -22.5t-22.5 -9.5h-179v-310h179q13 0 22.5 -9.5 t9.5 -22.5v-66q0 -14 -9.5 -23.5t-22.5 -9.5h-179v-311h179q13 0 22.5 -9.5t9.5 -23.5v-65q0 -14 -9.5 -23.5t-22.5 -9.5h-244q-27 0 -46.5 19.5t-19.5 46.5z" />
<glyph unicode="&#xe9;" horiz-adv-x="550" d="M59 66v882q0 28 19 47t47 19h244q13 0 22.5 -9.5t9.5 -23.5v-66q0 -13 -9.5 -22.5t-22.5 -9.5h-179v-310h179q13 0 22.5 -9.5t9.5 -22.5v-66q0 -14 -9.5 -23.5t-22.5 -9.5h-179v-311h179q13 0 22.5 -9.5t9.5 -23.5v-65q0 -14 -9.5 -23.5t-22.5 -9.5h-244 q-27 0 -46.5 19.5t-19.5 46.5zM163 1162q-6 11 3 26l119 209q7 15 26.5 26t36.5 11h64q19 0 25 -11t-3 -26l-119 -209q-7 -15 -26.5 -26t-36.5 -11h-64q-19 0 -25 11z" />
<glyph unicode="&#xea;" horiz-adv-x="512" d="M13.5 1162q-6.5 11 2.5 26l119 209q8 14 24.5 25t33.5 12q1 2 38 2t39 -2q17 -1 33.5 -12t24.5 -25l118 -209q9 -15 3 -26t-25 -11h-64q-18 0 -37 11t-28 26l-64 115l-63 -115q-9 -15 -29 -26t-37 -11h-63q-19 0 -25.5 11zM61 66v882q0 28 19 47t47 19h244 q13 0 22.5 -9.5t9.5 -23.5v-66q0 -13 -9.5 -22.5t-22.5 -9.5h-178v-310h178q13 0 22.5 -9.5t9.5 -22.5v-66q0 -14 -9.5 -23.5t-22.5 -9.5h-178v-311h178q13 0 22.5 -9.5t9.5 -23.5v-65q0 -14 -9.5 -23.5t-22.5 -9.5h-244q-27 0 -46.5 19.5t-19.5 46.5z" />
<glyph unicode="&#xeb;" horiz-adv-x="512" d="M59 66v882q0 28 19 47t47 19h244q13 0 22.5 -9.5t9.5 -23.5v-66q0 -13 -9.5 -22.5t-22.5 -9.5h-179v-310h179q13 0 22.5 -9.5t9.5 -22.5v-66q0 -14 -9.5 -23.5t-22.5 -9.5h-179v-311h179q13 0 22.5 -9.5t9.5 -23.5v-65q0 -14 -9.5 -23.5t-22.5 -9.5h-244 q-27 0 -46.5 19.5t-19.5 46.5zM59 1182v135q0 12 10 22.5t23 10.5h66q13 0 22.5 -10.5t9.5 -22.5v-135q0 -14 -9.5 -23.5t-22.5 -9.5h-66q-14 0 -23.5 9.5t-9.5 23.5zM270 1182v135q0 12 10 22.5t23 10.5h64q13 0 22.5 -10.5t9.5 -22.5v-135q0 -14 -9.5 -23.5t-22.5 -9.5 h-64q-13 0 -23 9.5t-10 23.5z" />
<glyph unicode="&#xec;" horiz-adv-x="301" d="M-88.5 1425q6.5 11 25.5 11h63q19 0 38 -11t28 -26l118 -211q9 -15 3 -26t-25 -11h-64q-18 0 -37 11t-28 26l-119 211q-9 15 -2.5 26zM63 33v948q0 13 9.5 23t23.5 10h66q12 0 22.5 -10t10.5 -23v-948q0 -13 -9.5 -23t-23.5 -10h-66q-14 0 -23.5 10t-9.5 23z" />
<glyph unicode="&#xed;" horiz-adv-x="301" d="M58.5 1162q-6.5 11 2.5 26l119 209q7 15 26.5 26t37.5 11h63q19 0 25.5 -11t-2.5 -26l-119 -209q-7 -15 -26.5 -26t-37.5 -11h-63q-19 0 -25.5 11zM61 33v948q0 13 9.5 23t23.5 10h66q12 0 22.5 -10t10.5 -23v-948q0 -13 -9.5 -23t-23.5 -10h-66q-14 0 -23.5 10t-9.5 23z " />
<glyph unicode="&#xee;" horiz-adv-x="301" d="M-93 1162q-6 11 3 26l119 209q8 14 24 25t33 12q2 2 39 2t39 -2q17 -1 33 -12t24 -25l119 -209q9 -15 2.5 -26t-25.5 -11h-63q-19 0 -38 11t-28 26l-63 115l-64 -115q-9 -15 -28.5 -26t-36.5 -11h-64q-19 0 -25 11zM61 33v948q0 13 9.5 23t23.5 10h66q12 0 22.5 -10 t10.5 -23v-948q0 -13 -9.5 -23t-23.5 -10h-66q-14 0 -23.5 10t-9.5 23z" />
<glyph unicode="&#xef;" horiz-adv-x="301" d="M-45 1182v135q0 12 10 22.5t23 10.5h65q13 0 23 -10.5t10 -22.5v-135q0 -14 -10 -23.5t-23 -9.5h-65q-14 0 -23.5 9.5t-9.5 23.5zM59 33v948q0 13 9.5 23t23.5 10h66q12 0 22 -10t10 -23v-948q0 -14 -9.5 -23.5t-22.5 -9.5h-66q-14 0 -23.5 10t-9.5 23zM166 1182v135 q0 12 10 22.5t23 10.5h63q13 0 23 -10.5t10 -22.5v-135q0 -14 -9.5 -23.5t-23.5 -9.5h-63q-13 0 -23 9.5t-10 23.5z" />
<glyph unicode="&#xf1;" horiz-adv-x="641" d="M59 33v745q0 97 70 166.5t168 69.5q97 0 166 -69.5t69 -166.5v-745q0 -12 -9.5 -22.5t-22.5 -10.5h-66q-13 0 -23 10.5t-10 22.5v745q0 43 -30.5 74t-73.5 31q-44 0 -75.5 -31t-31.5 -74v-745q0 -12 -9.5 -22.5t-22.5 -10.5h-66q-13 0 -23 10.5t-10 22.5zM125 1182v65 q0 13 9.5 23t23.5 10h276q14 0 23.5 -10t9.5 -23v-65q0 -14 -9.5 -23.5t-23.5 -9.5h-276q-14 0 -23.5 9.5t-9.5 23.5z" />
<glyph unicode="&#xf2;" d="M59 238v540q0 97 70 166.5t168 69.5q97 0 166 -69.5t69 -166.5v-540q0 -98 -69 -168t-166 -70q-98 0 -168 70t-70 168zM79 1425q6 11 25 11h64q18 0 37 -11t28 -26l119 -211q9 -15 3 -26t-25 -11h-64q-18 0 -37 11t-28 26l-119 211q-9 15 -3 26zM190 238 q0 -44 31.5 -75.5t75.5 -31.5q43 0 73.5 31.5t30.5 75.5v540q0 43 -30.5 74t-73.5 31q-44 0 -75.5 -31t-31.5 -74v-540z" />
<glyph unicode="&#xf3;" d="M59 238v540q0 97 70 166.5t168 69.5q97 0 166 -69.5t69 -166.5v-540q0 -98 -69 -168t-166 -70q-98 0 -168 70t-70 168zM190 238q0 -44 31.5 -75.5t75.5 -31.5q43 0 73.5 31.5t30.5 75.5v540q0 43 -30.5 74t-73.5 31q-44 0 -75.5 -31t-31.5 -74v-540zM237 1162q-6 11 3 26 l118 209q7 15 26.5 26t37.5 11h63q19 0 25.5 -11t-2.5 -26l-119 -209q-7 -15 -26.5 -26t-36.5 -11h-64q-19 0 -25 11z" />
<glyph unicode="&#xf4;" horiz-adv-x="641" d="M59 238v540q0 97 70 166.5t168 69.5q97 0 166 -69.5t69 -166.5v-540q0 -98 -69 -168t-166 -70q-98 0 -168 70t-70 168zM77 1162q-6 11 3 26l119 209q8 14 24 25t33 12q2 2 39 2t39 -2q17 -1 33 -12t24 -25l119 -209q9 -15 2.5 -26t-25.5 -11h-63q-19 0 -38 11t-28 26 l-63 115l-64 -115q-9 -15 -28.5 -26t-36.5 -11h-64q-19 0 -25 11zM190 238q0 -44 31.5 -75.5t75.5 -31.5q43 0 73.5 31.5t30.5 75.5v540q0 43 -30.5 74t-73.5 31q-44 0 -75.5 -31t-31.5 -74v-540z" />
<glyph unicode="&#xf6;" d="M59 238v540q0 97 70 166.5t168 69.5q97 0 166 -69.5t69 -166.5v-540q0 -98 -69 -168t-166 -70q-98 0 -168 70t-70 168zM125 1182v135q0 12 10 22.5t23 10.5h65q13 0 23 -10.5t10 -22.5v-135q0 -14 -10 -23.5t-23 -9.5h-65q-14 0 -23.5 9.5t-9.5 23.5zM190 238 q0 -44 31.5 -75.5t75.5 -31.5q43 0 73.5 31.5t30.5 75.5v540q0 43 -30.5 74t-73.5 31q-44 0 -75.5 -31t-31.5 -74v-540zM336 1182v135q0 12 10 22.5t23 10.5h63q13 0 23 -10.5t10 -22.5v-135q0 -14 -9.5 -23.5t-23.5 -9.5h-63q-13 0 -23 9.5t-10 23.5z" />
<glyph unicode="&#xf9;" d="M59 238v743q0 13 10.5 23t22.5 10h66q13 0 22.5 -9.5t9.5 -23.5v-743q0 -44 31.5 -75.5t75.5 -31.5q43 0 73.5 31.5t30.5 75.5v743q0 13 9.5 23t23.5 10h66q13 0 22.5 -9.5t9.5 -23.5v-743q0 -98 -69 -168t-166 -70q-98 0 -168 70t-70 168zM79 1425q6 11 25 11h64 q18 0 37 -11t28 -26l119 -211q9 -15 3 -26t-25 -11h-64q-18 0 -37 11t-28 26l-119 211q-9 15 -3 26z" />
<glyph unicode="&#xfa;" d="M59 238v743q0 13 10.5 23t22.5 10h66q13 0 22.5 -9.5t9.5 -23.5v-743q0 -44 31.5 -75.5t75.5 -31.5q43 0 73.5 31.5t30.5 75.5v743q0 13 9.5 23t23.5 10h66q13 0 22.5 -9.5t9.5 -23.5v-743q0 -98 -69 -168t-166 -70q-98 0 -168 70t-70 168zM226.5 1162q-6.5 11 2.5 26 l119 209q7 15 26.5 26t37.5 11h63q19 0 25.5 -11t-2.5 -26l-119 -209q-7 -15 -26.5 -26t-37.5 -11h-63q-19 0 -25.5 11z" />
<glyph unicode="&#xfb;" d="M59 238v743q0 13 10.5 23t22.5 10h66q13 0 22.5 -9.5t9.5 -23.5v-743q0 -44 31.5 -75.5t75.5 -31.5q43 0 73.5 31.5t30.5 75.5v743q0 13 9.5 23t23.5 10h66q13 0 22.5 -9.5t9.5 -23.5v-743q0 -98 -69 -168t-166 -70q-98 0 -168 70t-70 168zM77 1162q-6 11 3 26l119 209 q8 14 24 25t33 12q2 2 39 2t39 -2q17 -1 33 -12t24 -25l119 -209q9 -15 2.5 -26t-25.5 -11h-63q-19 0 -38 11t-28 26l-63 115l-64 -115q-9 -15 -28.5 -26t-36.5 -11h-64q-19 0 -25 11z" />
<glyph unicode="&#xfc;" d="M59 238v743q0 13 10.5 23t22.5 10h66q13 0 22.5 -9.5t9.5 -23.5v-743q0 -44 31.5 -75.5t75.5 -31.5q43 0 73.5 31.5t30.5 75.5v743q0 13 9.5 23t23.5 10h66q13 0 22.5 -9.5t9.5 -23.5v-743q0 -98 -69 -168t-166 -70q-98 0 -168 70t-70 168zM125 1182v135q0 12 10 22.5 t23 10.5h65q13 0 23 -10.5t10 -22.5v-135q0 -14 -10 -23.5t-23 -9.5h-65q-14 0 -23.5 9.5t-9.5 23.5zM336 1182v135q0 12 10 22.5t23 10.5h63q13 0 23 -10.5t10 -22.5v-135q0 -14 -9.5 -23.5t-23.5 -9.5h-63q-13 0 -23 9.5t-10 23.5z" />
<glyph unicode="&#x152;" horiz-adv-x="3411" />
<glyph unicode="&#x178;" horiz-adv-x="1705" />
<glyph unicode="&#x2c6;" horiz-adv-x="1705" />
<glyph unicode="&#x2dc;" horiz-adv-x="1705" />
<glyph unicode="&#x2000;" horiz-adv-x="718" />
<glyph unicode="&#x2001;" horiz-adv-x="1436" />
<glyph unicode="&#x2002;" horiz-adv-x="718" />
<glyph unicode="&#x2003;" horiz-adv-x="1436" />
<glyph unicode="&#x2004;" horiz-adv-x="478" />
<glyph unicode="&#x2005;" horiz-adv-x="359" />
<glyph unicode="&#x2006;" horiz-adv-x="239" />
<glyph unicode="&#x2007;" horiz-adv-x="239" />
<glyph unicode="&#x2008;" horiz-adv-x="179" />
<glyph unicode="&#x2009;" horiz-adv-x="287" />
<glyph unicode="&#x200a;" horiz-adv-x="79" />
<glyph unicode="&#x2010;" horiz-adv-x="571" d="M59 471v66q0 12 10 22t23 10h336q13 0 23 -10t10 -22v-66q0 -13 -9.5 -23t-23.5 -10h-336q-14 0 -23.5 10t-9.5 23z" />
<glyph unicode="&#x2011;" horiz-adv-x="571" d="M59 471v66q0 12 10 22t23 10h336q13 0 23 -10t10 -22v-66q0 -13 -9.5 -23t-23.5 -10h-336q-14 0 -23.5 10t-9.5 23z" />
<glyph unicode="&#x2012;" horiz-adv-x="571" d="M59 471v66q0 12 10 22t23 10h336q13 0 23 -10t10 -22v-66q0 -13 -9.5 -23t-23.5 -10h-336q-14 0 -23.5 10t-9.5 23z" />
<glyph unicode="&#x2013;" horiz-adv-x="1193" d="M59 471v66q0 12 25.5 22t58.5 10h856q33 0 58.5 -10t25.5 -22v-66q0 -13 -24 -23t-60 -10h-856q-36 0 -60 10t-24 23z" />
<glyph unicode="&#x2014;" horiz-adv-x="2217" d="M59 471v66q0 12 51 22t117 10h1712q66 0 117 -10t51 -22v-66q0 -13 -48.5 -23t-119.5 -10h-1712q-71 0 -119.5 10t-48.5 23z" />
<glyph unicode="&#x202f;" horiz-adv-x="287" />
<glyph unicode="&#x205f;" horiz-adv-x="359" />
<glyph unicode="&#x20ac;" horiz-adv-x="776" d="M59 342v66q0 13 9.5 22.5t23.5 9.5h103v131h-103q-14 0 -23.5 9.5t-9.5 23.5v66q0 12 10 22t23 10h103v74q0 98 68 167t165 69q98 0 167 -69t69 -167v-69q0 -12 -10 -22.5t-23 -10.5h-66q-12 0 -21 10.5t-9 22.5v69q0 44 -31.5 75.5t-75.5 31.5q-43 0 -73.5 -31.5 t-30.5 -75.5v-74h102q13 0 23 -10t10 -22v-66q0 -14 -9.5 -23.5t-23.5 -9.5h-102v-131h102q14 0 23.5 -9.5t9.5 -22.5v-66q0 -14 -9.5 -23.5t-23.5 -9.5h-102v-73q0 -44 30.5 -75.5t73.5 -31.5q44 0 75.5 31.5t31.5 75.5v75q0 13 9 23t21 10h66q13 0 23 -10t10 -23v-75 q0 -98 -69 -167t-167 -69q-97 0 -165 69t-68 167v73h-103q-14 0 -23.5 9.5t-9.5 23.5z" />
<glyph unicode="&#xe000;" horiz-adv-x="1013" d="M0 0v1014h1014v-1014h-1014z" />
</font>
</defs>
</svg>
